<?xml version="1.0" standalone="no"?>
<!DOCTYPE svg PUBLIC "-//W3C//DTD SVG 1.1//EN" "http://www.w3.org/Graphics/SVG/1.1/DTD/svg11.dtd" >
<svg xmlns="http://www.w3.org/2000/svg" xmlns:xlink="http://www.w3.org/1999/xlink" version="1.1">
<metadata></metadata>
<defs>
<font id="lhf_signmaker_fancyregular" horiz-adv-x="710" >
<font-face units-per-em="2048" ascent="1638" descent="-410" />
<missing-glyph horiz-adv-x="452" />
<glyph unicode="&#xfb01;" horiz-adv-x="993" d="M49 1219h524l5 -99q-22 11 -62.5 19t-66.5 8h-113q-4 -9 -4 -47v-463h65q92 0 131 18v-108q-35 16 -131 16h-65v-434q0 -26 7 -66.5t17 -62.5h-305q10 22 17.5 63t7.5 66v961q0 23 -8.5 65t-18.5 64zM637 0q11 22 20 63t9 66v961q0 24 -9 65.5t-20 63.5h309 q-11 -21 -18.5 -62.5t-7.5 -66.5v-961q0 -26 7.5 -66.5t18.5 -62.5h-309z" />
<glyph unicode="&#xfb02;" horiz-adv-x="1171" d="M49 1219h524l5 -99q-22 11 -62.5 19t-66.5 8h-113q-4 -9 -4 -47v-463h65q92 0 131 18v-108q-35 16 -131 16h-65v-434q0 -26 7 -66.5t17 -62.5h-305q10 22 17.5 63t7.5 66v961q0 23 -8.5 65t-18.5 64zM637 0q9 19 18 61.5t9 67.5v961q0 25 -8 66t-19 63h303 q-11 -22 -19 -63t-8 -66v-959q0 -45 7 -59h112q23 0 65 8t64 18l-6 -98h-518z" />
<glyph horiz-adv-x="0" />
<glyph horiz-adv-x="682" />
<glyph unicode=" "  horiz-adv-x="452" />
<glyph unicode="&#x09;" horiz-adv-x="452" />
<glyph unicode="&#xa0;" horiz-adv-x="452" />
<glyph unicode="!" horiz-adv-x="395" d="M53 1262h289q-10 -22 -17.5 -63t-7.5 -66l-20 -828h-199l-18 828q0 24 -8.5 65t-18.5 64zM63 88q0 54 38.5 91.5t91.5 37.5t89.5 -37.5t36.5 -91.5q0 -53 -37 -90t-89 -37q-53 0 -91.5 37.5t-38.5 89.5z" />
<glyph unicode="&#x22;" horiz-adv-x="411" d="M18 1133q0 53 24 88.5t60 35.5q35 0 58.5 -35.5t23.5 -88.5q-16 -149 -63 -334h-33q-52 189 -70 334zM227 1133q0 53 23 88.5t59 35.5q35 0 58.5 -35.5t23.5 -88.5q-16 -149 -63 -334h-33q-53 192 -68 334z" />
<glyph unicode="#" horiz-adv-x="1429" d="M45 0q11 22 20 61t9 62v973q0 23 -9 62t-20 61h274q-11 -21 -14 -56q-6 -56 23 -118t92 -144q9 -12 32 -42t33.5 -44t30 -43t31 -52t26 -56t25.5 -68v500q0 22 -8.5 61t-18.5 62h152q-11 -22 -19 -60.5t-8 -62.5v-973q0 -24 8 -62.5t19 -60.5h-141q23 47 20 111 q-1 34 -91 153t-179 211q-55 58 -104 155t-56 165v-672q0 -24 8 -62.5t19 -60.5h-154zM739 743q-1 200 87 312t239 114q152 2 245.5 -108.5t92.5 -317.5q-1 -131 -47.5 -230t-122 -149.5t-168.5 -50.5q-138 0 -230.5 119t-95.5 311zM825 106q31 53 86 100.5t109 47.5 q36 0 85 -30.5t87 -30.5q64 0 111 28q-31 -52 -86 -98.5t-109 -46.5q-38 0 -89 29.5t-85 29.5q-66 0 -109 -29zM973 743q0 -90 6 -157.5t14.5 -107t21.5 -64t24.5 -32.5t25.5 -7q16 1 27.5 6.5t26.5 27t24.5 59t16.5 108t7 167.5q0 89 -6.5 157t-16.5 107.5t-24.5 64 t-27.5 32.5t-27 8q-13 0 -24 -5.5t-24.5 -28t-22.5 -60t-15 -108.5t-6 -167z" />
<glyph unicode="$" horiz-adv-x="571" d="M49 332l37 137q18 -51 64 -83t92 -32q44 0 70.5 25.5t29.5 75.5q2 25 -3 45t-24.5 45.5t-35 41t-54.5 52.5q-16 15 -24 23q-82 77 -120 146t-30 155q7 77 62 130.5t139 71.5l-4 166q0 10 -4 37.5t-8 34.5h100q-10 -17 -10 -72l-7 -157h11q54 0 94 -12.5t57 -24.5l-2 -4h2 l-43 -105q-11 27 -42.5 51.5t-61.5 24.5q-57 1 -85 -32.5t-20 -74.5q5 -25 22.5 -51t34 -42.5t52.5 -49.5t53 -49q167 -159 121 -324q-21 -77 -72 -128t-121 -68l7 -166q0 -55 10 -72h-100q4 7 8 34.5t4 37.5l4 153h-10q-65 0 -116.5 18.5t-76.5 41.5z" />
<glyph unicode="%" horiz-adv-x="1449" d="M45 958q-3 183 87 274t247 93q158 2 252.5 -87.5t93.5 -279.5q0 -182 -98.5 -277t-247.5 -95q-144 0 -237.5 97t-96.5 275zM250 -82l842 1436h100l-842 -1436h-100zM287 958q0 -61 3.5 -110t9 -81t13.5 -55.5t16 -36t17.5 -20t16.5 -9t16 -1.5q17 0 25.5 1.5t25.5 17 t26.5 46t17 94t7.5 154.5q0 83 -7 144t-17 92.5t-25.5 50t-27 23t-25.5 4.5t-22.5 -2t-23.5 -18t-23.5 -46.5t-15.5 -94t-7 -153.5zM731 340q-3 184 86.5 274.5t247.5 92.5t252.5 -87.5t93.5 -279.5q0 -182 -98 -276.5t-248 -94.5q-144 0 -237.5 96.5t-96.5 274.5zM973 340 q0 -61 3.5 -110t9 -81t13.5 -55.5t16 -36t17.5 -20t16.5 -9t16 -1.5q17 0 25.5 1.5t25.5 17t26.5 46t17 94t7.5 154.5q0 84 -7 145t-17 92.5t-25.5 49.5t-26.5 22t-26 4q-10 0 -15.5 -0.5t-17 -6.5t-18 -17t-15.5 -34t-14 -55t-8.5 -83.5t-3.5 -116.5z" />
<glyph unicode="&#x26;" horiz-adv-x="1040" d="M25 365q0 54 16 106.5t36.5 89.5t54.5 77.5t55.5 60.5t54.5 49q-57 122 -47 208q18 143 108 212t227 69q65 0 117.5 -21t69.5 -38l-49 -113q-9 33 -52.5 67.5t-78.5 34.5q-67 0 -111 -55.5t-41 -126.5q2 -45 47.5 -138t108 -191t109.5 -168t73 -105q31 75 44 174.5 t-1 214.5l123 -57q0 -216 -105 -414q219 -277 254 -301h-336q-6 8 -77 106q-52 -62 -105.5 -96t-138.5 -39q-139 -8 -247.5 104t-108.5 290zM279 324q48 -98 96 -141.5t114 -37.5q48 5 86 35q-65 96 -148.5 235.5t-141.5 252.5q-104 -149 -6 -344z" />
<glyph unicode="'" horiz-adv-x="202" d="M18 1204q0 53 24 89t60 36q35 0 58.5 -36t23.5 -89q-16 -149 -63 -334h-33q-52 189 -70 334z" />
<glyph unicode="(" horiz-adv-x="491" d="M39 633q6 364 118.5 552.5t309.5 209.5l25 -54q-131 -29 -218 -215t-90 -493q-1 -316 84 -505t217 -218l-14 -55q-196 21 -310.5 217t-121.5 561z" />
<glyph unicode=")" horiz-adv-x="491" d="M0 1341l25 54q197 -21 309.5 -209.5t118.5 -552.5q-7 -365 -122.5 -561t-312.5 -217l-12 55q130 29 215.5 218t85.5 505q-3 307 -89.5 493t-217.5 215z" />
<glyph unicode="*" horiz-adv-x="1105" d="M29 786q0 82 76.5 128.5t185.5 46.5q124 0 231.5 -59.5t169.5 -157.5t62 -209q0 -57 -13.5 -113t-40.5 -106.5t-75 -81.5t-109 -31q-57 0 -103 39t-46 104q0 53 31.5 90t72.5 37q28 0 47 -14.5t19 -42.5q0 -19 -13 -32t-30 -13q-16 0 -27.5 11.5t-11.5 29.5q0 24 26 34 q-27 0 -51 -27.5t-24 -64.5q0 -43 28 -79.5t82 -36.5q68 -2 118 41.5t72.5 108.5t22.5 140q0 82 -39 160t-92 129q58 -76 82 -151.5t19.5 -125t-23.5 -91.5q31 39 31 106q0 59 -17 111q31 -59 31 -152q0 -46 -17 -84.5t-53 -38.5q-8 0 -12 2q1 11 -1.5 24.5t1.5 18.5 q-16 -7 -43 6q36 12 58 48t22 77q0 156 -114.5 260.5t-285.5 104.5q-49 0 -105.5 -18t-90.5 -60q37 39 110 39q68 0 105 -29q-8 12 -34.5 24t-49.5 13q36 9 94.5 -16t61.5 -70q0 -16 -2 -24q-4 2 -13.5 3.5t-17.5 4.5q0 -8 0.5 -13t-2.5 -11.5t-4.5 -9.5t-5.5 -8t-5.5 -7 t-5 -5t-4.5 -4q6 24 6 39q-1 39 -44 68t-87 29q-45 0 -82 -24t-37 -69q0 -9 7 -18.5t16 -9.5q7 1 8 6q-7 1 -11.5 10t-4.5 16q0 9 8.5 19t26.5 10q19 0 30 -13.5t11 -31.5q0 -23 -16.5 -39t-45.5 -16t-46 21.5t-17 47.5zM231 913q5 5 41 5q95 -2 175 -60t94 -156 q-6 150 -187 211q10 -2 30 -8.5t54 -20.5t66.5 -40.5t50.5 -59.5q-3 13 -19 35.5t-32 36.5q31 -18 70 -59t44 -88q0 -3 -6 -15q-4 4 -17.5 10t-21.5 15q17 -28 17 -72q-3 -43 -39 -74q-5 10 -23.5 28.5t-25.5 37.5q-5 -21 -24.5 -39t-41.5 -18q-35 0 -35 16q24 -3 52 28.5 t28 71.5q0 87 -81 151t-169 64zM418 352q0 38 22 60q-6 -12 -6 -31q-2 -23 8 -48.5t35 -41.5l-2 1l-4 4t-5 5.5t-5.5 7.5t-4.5 9t-3.5 11t-1.5 13q0 27 8 35q-3 -23 14 -47.5t47 -24.5q89 0 148 78q0 -8 -11.5 -29t-29.5 -39q35 25 82 105q-17 -61 -68 -115.5t-123 -54.5 q-43 0 -71.5 29t-28.5 73zM584 877q23 -12 62 -41t74 -46.5t75 -17.5q51 0 90 31.5t39 77.5q0 23 -13 47t-37 24q-12 0 -18 -6q6 0 13.5 -10t7.5 -21q0 -12 -10.5 -20t-24.5 -8q-20 0 -31.5 13.5t-11.5 33.5q0 22 18 38.5t45 16.5q28 0 51.5 -19t32.5 -48q6 -15 6 -33 q-3 -68 -46.5 -103.5t-100.5 -35.5q-37 0 -68 13t-50 29.5t-48.5 42.5t-54.5 42zM614 870q2 -1 17.5 -10.5t31 -17.5t41.5 -15.5t52 -7.5q36 0 75 23t56 55q0 -15 -7 -32t-16 -23q29 13 29 51q0 35 -12 47q30 -15 30 -63q0 -37 -37 -67t-77 -30q-69 0 -125 45q40 -24 88 -24 q30 0 45 6q-105 -13 -191 63zM668 158q0 63 20 96q-8 -24 -8 -59q-1 -97 56 -148t145 -39q-74 -9 -132.5 39t-58.5 131q9 -68 47 -108.5t94 -40.5q25 0 44 10t32 10q11 0 32 -11t28 -13q-19 -19 -33 -25q37 0 76 -18.5t39 -51.5q0 -20 -11 -32.5t-26 -12.5q-12 0 -20.5 6.5 t-8.5 16.5q0 22 21 22q22 0 22 -20q4 0 4 12q0 58 -164 58q-83 0 -140.5 47t-57.5 131zM694 215q0 47 13 80q-5 -23 -5 -51q0 -67 30 -116t85 -50q15 0 35 10q0 -8 -12 -14q41 0 59 22q1 -26 -19.5 -40.5t-48.5 -14.5q-59 0 -98 48t-39 126zM713 227q0 67 12 115 q-4 -40 -4 -59q0 -130 74 -148q-1 19 9.5 31t24.5 12q6 0 13.5 -2t15.5 -12.5t8 -28.5q0 -21 -15.5 -33t-35.5 -12q-46 0 -74 43t-28 94zM729 285q0 58 25 118q-13 -60 -13 -106q0 -94 45 -150q-57 34 -57 138zM854 1036q0 17 5 28.5t10 15t8 3.5q8 -19 24 -32q-2 3 -6 10 t-6 10t-5 9.5t-4.5 11.5t-3.5 12.5t-2 15.5q-1 19 8 30.5t17.5 11t11.5 -0.5q0 -30 9 -39q-6 44 29 87.5t81 43.5q23 0 39 -11.5t16 -31.5q0 -12 -7.5 -22t-20.5 -10q-12 0 -20.5 7t-8.5 17q0 14 14 21q-6 2 -18 2q-34 -3 -56 -38t-22 -69q0 -32 9.5 -80t9.5 -86l-7 -63 q0 23 -2 29q-3 43 -12.5 86t-18.5 67t-14 27q36 -107 39 -164q-6 15 -12 24q-8 31 -24 49.5t-25 20.5q32 -25 43 -63q-24 27 -58 30q-20 20 -20 41z" />
<glyph unicode="+" horiz-adv-x="851" d="M23 705q0 75 59.5 117t157.5 44q154 1 253 -116.5t101 -290.5q1 -127 -48 -237t-136.5 -176t-192.5 -66q-141 0 -141 51q0 35 35 35q16 0 25 -9t9 -22q0 -15 -6 -21q3 -8 32 -13t46 -5q71 -1 136 38t108 99.5t68.5 131.5t25.5 136q0 64 -35.5 127.5t-91.5 81.5 q57 -34 89 -93t32 -118q0 -73 -28.5 -143.5t-67.5 -122.5q30 48 52.5 118t22.5 134q0 25 -9 55t-26.5 60.5t-50.5 50.5t-75 20q-33 0 -48.5 -21t-13.5 -36q-20 5 -20 43q0 16 15.5 31.5t33.5 15.5q21 0 33 -4q-1 3 -9 5.5t-19.5 11.5t-19.5 28q15 15 35.5 18.5t41 -3.5 t37.5 -17t32 -22q-15 17 -20 29t-9 16q4 2 17 2q63 0 104 -158q-2 3 -8 17t-8.5 19t-8.5 16t-10.5 17t-11.5 13t-14 12q69 -84 69 -192q2 16 2 53q0 132 -91 231t-220 99q-44 0 -80 -19t-47 -55q-3 2 -14 0t-17 -6q7 43 47 69q-19 -2 -39 -30.5t-14 -51.5q13 13 31 13 q9 0 18.5 -2.5t21 -14t11.5 -30.5q0 -23 -18 -36.5t-45 -13.5q-36 0 -62 25.5t-26 61.5zM59 705q0 -21 12.5 -38.5t34.5 -17.5q10 0 13 6q-22 -3 -36.5 13.5t-14.5 38.5q0 42 31 73t68.5 43.5t70.5 12.5q65 0 123.5 -27t99.5 -71.5t68.5 -96t39.5 -104.5q-6 51 -33 104.5 t-68.5 99.5t-103 75.5t-128.5 29.5q-70 0 -123.5 -40t-53.5 -101zM154 16q59 -11 117.5 16t93.5 75t34 98q0 67 -57 86q44 4 70 -31q3 7 9.5 15t10.5 22q2 -1 7.5 -5.5t9 -7t8.5 -7t8.5 -8.5t7 -9.5t5 -11.5t1.5 -12q0 -56 -33 -105t-63 -68q11 9 25 27.5t27.5 54.5t8.5 70 q-7 -95 -72 -152t-155 -57q-51 0 -63 10zM573 651q1 24 7.5 41t16 23.5t19.5 11t16.5 3t8.5 -0.5q-8 -8 -10.5 -14.5t-5.5 -17.5t-9 -23q8 18 36 38.5t75 20.5q53 0 78.5 -26t25.5 -52q0 -69 -59 -69q-13 0 -27 10.5t-14 28.5q0 34 35 34q21 0 27 -14q2 4 2 12q0 6 -6 13 t-23 13.5t-41 6.5q-38 0 -72.5 -29.5t-42.5 -85.5q3 42 24.5 76.5t55.5 46.5q-92 -29 -92 -168q-10 55 -10 93q0 32 14 67q-26 -33 -16 -115q-13 26 -13 76zM600 418q9 118 17 152q28 109 112 110q40 0 43 -10q-31 4 -41 -15q-4 2 -12 2q-19 0 -34.5 -8t-27.5 -28.5t-20 -37 t-15.5 -51.5t-11 -53.5t-10.5 -60.5z" />
<glyph unicode="," horiz-adv-x="292" d="M31 104q0 47 34.5 82t81.5 35t81 -35t34 -82q0 -43 -22 -88t-56.5 -82t-67.5 -64t-63 -46q17 26 27 43t22 52.5t15 74.5q-38 9 -62 40t-24 70z" />
<glyph unicode="-" horiz-adv-x="516" d="M2 551q30 62 85.5 117t109.5 55q35 0 84 -36t88 -36q59 0 110 35q-31 -61 -85.5 -115.5t-108.5 -54.5q-37 0 -88 35t-86 35q-64 0 -109 -35z" />
<glyph unicode="." horiz-adv-x="360" d="M53 117q0 54 37 91.5t90 37.5t90 -37.5t37 -91.5q0 -53 -37.5 -90t-89.5 -37t-89.5 37t-37.5 90z" />
<glyph unicode="/" horiz-adv-x="978" d="M16 -92l844 1435h101l-842 -1435h-103z" />
<glyph unicode="0" horiz-adv-x="849" d="M27 612q-1 135 21 245.5t68 197.5t125.5 135.5t186.5 48.5q108 0 187 -47t124.5 -133.5t65.5 -197.5t18 -249q-2 -136 -26.5 -249t-72.5 -199t-124.5 -134.5t-175.5 -49.5q-98 -1 -174.5 48.5t-124 137t-72.5 201t-26 245.5zM319 612q0 -141 5 -241.5t16.5 -176 t32.5 -112t51 -35.5q61 3 84.5 133.5t23.5 431.5q0 141 -5 240t-16.5 173.5t-32 110.5t-50.5 35q-63 -1 -86 -129t-23 -430z" />
<glyph unicode="1" horiz-adv-x="423" d="M33 1108q232 75 319 145v-1124q0 -25 7.5 -66t17.5 -63h-307q11 22 19.5 63t8.5 66v821q0 31 -18.5 86.5t-46.5 71.5z" />
<glyph unicode="2" horiz-adv-x="649" d="M29 0q75 207 140.5 380.5t98.5 258.5t59 151.5t35 94.5t12.5 49.5t4.5 52.5q2 73 -29 126t-106 52q-41 0 -83.5 -26.5t-64.5 -63.5l-47 103q14 11 35.5 22.5t68.5 24t97 12.5q154 0 255 -77t101 -210q0 -95 -36.5 -218t-124.5 -345t-121 -315h157q23 0 64 8t65 18 l-12 -98h-569z" />
<glyph unicode="3" horiz-adv-x="671" d="M16 33l50 112q20 -31 63 -60.5t82 -29.5h3q17 0 30.5 1.5t41 18.5t45 47.5t31.5 96.5t13 158q-1 83 -11.5 138t-30.5 84.5t-44.5 41t-59.5 12.5q-52 0 -98 -16v96q32 -14 98 -10q111 6 111 238q0 32 -1 53t-7 53t-17 51.5t-33.5 34t-54.5 14.5q-41 0 -83.5 -30t-59.5 -60 l-49 113q79 47 192 49q181 3 274.5 -62t96.5 -216q1 -60 -18 -108.5t-52.5 -80t-73 -50.5t-83.5 -26q31 -4 50.5 -7.5t51.5 -13t52.5 -23t45 -37.5t39 -55t25 -78t10.5 -105q3 -188 -117.5 -290t-316.5 -105q-115 0 -195 51z" />
<glyph unicode="4" horiz-adv-x="724" d="M0 236l326 856q8 23 13.5 63t2.5 64h266q-10 -23 -19 -65t-9 -64v-783q72 -4 120 12v-102q-45 19 -120 19v-103q0 -24 8.5 -67t19.5 -66h-309q11 22 20 63.5t9 65.5v107h-328zM113 307h215v578z" />
<glyph unicode="5" horiz-adv-x="679" d="M29 29l47 114q24 -42 63.5 -67t87.5 -25q142 0 142 326q0 288 -201 293q-59 0 -98 -17v566h577l8 -99q-23 11 -64 19t-65 8h-202v-420q35 -1 60.5 -3.5t61 -11t60.5 -22.5t52.5 -40t44 -61.5t27.5 -89.5t11 -122q0 -102 -32 -181t-87.5 -125t-124 -69.5t-147.5 -24.5 q-67 -1 -118.5 9.5t-71.5 21t-31 21.5z" />
<glyph unicode="6" horiz-adv-x="796" d="M27 608q2 307 108 466.5t346 168.5q113 0 193 -51l-49 -111q-17 30 -61 60t-83 30q-33 0 -58.5 -13t-42.5 -34.5t-29 -54.5t-18.5 -68t-10 -80t-5 -86t-2.5 -89v-9q43 22 95 27q197 13 279.5 -76t82.5 -289q0 -93 -17.5 -166t-56 -132.5t-108.5 -90.5t-168 -30 q-94 1 -163 28t-113.5 76.5t-71.5 128.5t-37.5 173.5t-9.5 221.5zM315.5 493.5q-2.5 -52.5 1.5 -94.5q2 -166 11 -221q23 -129 96 -129q18 0 32.5 7t24 21.5t17 30t11.5 40.5t6.5 45t3 51t0.5 51t-0.5 53t-0.5 49q0 150 -9 199q-20 104 -97 104q-36 0 -58.5 -31t-29 -77 t-9 -98.5z" />
<glyph unicode="7" horiz-adv-x="598" d="M2 1122l6 97h578l-209 -1090q-5 -23 -5 -64.5t5 -64.5h-314q22 27 48 129l192 1020h-172q-26 0 -66.5 -8t-62.5 -19z" />
<glyph unicode="8" horiz-adv-x="811" d="M25 377q0 80 17 139t40.5 91t61.5 52.5t67.5 26.5t71.5 10q-47 10 -84 26t-72 44t-54.5 75t-19.5 109q0 60 15 107.5t51.5 90.5t107.5 66.5t174 24.5q99 1 171 -22.5t110.5 -65.5t56 -91.5t17.5 -109.5q0 -206 -228 -254q41 -4 70 -10t67 -26.5t61.5 -52.5t40.5 -91 t17 -139q3 -397 -385 -397q-184 0 -279 95.5t-95 301.5zM297 377q0 -180 24 -256t80 -76q57 0 84.5 77t28.5 255q2 147 -22 214.5t-93 67.5q-27 0 -46 -13t-30 -34.5t-17 -60t-7.5 -77t-1.5 -97.5zM313 950q0 -120 17 -172.5t69 -52.5q100 0 97 225q-3 224 -97 221 q-48 -1 -67 -56t-19 -165z" />
<glyph unicode="9" horiz-adv-x="792" d="M25 850q0 187 81 288t263 101q95 0 163 -23.5t114 -69t73 -122.5t38 -174.5t11 -233.5q0 -308 -112.5 -473.5t-344.5 -165.5q-130 0 -207 52l50 102q16 -28 63 -56t88 -28q52 0 89 41t55.5 109.5t25.5 146t4 162.5q-48 -25 -90 -27q-196 -7 -280 82.5t-84 288.5z M282.5 960q-2.5 -56 0.5 -110q2 -165 18 -223q23 -84 84 -84q32 0 51.5 22.5t27 72.5t8.5 82t1 98v32q0 51 -1.5 87.5t-7 83t-15.5 76t-29.5 50t-46.5 20.5q-34 0 -55 -29.5t-27 -75.5t-8.5 -102z" />
<glyph unicode=":" horiz-adv-x="323" d="M47 104q0 48 34 82.5t83 34.5q47 0 79.5 -34.5t32.5 -82.5q0 -47 -32.5 -79.5t-79.5 -32.5q-49 0 -83 32.5t-34 79.5zM47 606q0 48 34 82.5t83 34.5q47 0 79.5 -34.5t32.5 -82.5q0 -47 -32.5 -79.5t-79.5 -32.5q-49 0 -83 32.5t-34 79.5z" />
<glyph unicode=";" horiz-adv-x="323" d="M47 113q0 49 33.5 81.5t83.5 32.5q48 0 80 -32.5t32 -81.5q0 -56 -39 -116.5t-81.5 -98.5t-85.5 -66q54 76 63 172q-38 9 -62 39t-24 70zM47 606q0 48 34 82.5t83 34.5q47 0 79.5 -34.5t32.5 -82.5q0 -47 -32.5 -79.5t-79.5 -32.5q-49 0 -83 32.5t-34 79.5z" />
<glyph unicode="&#x3c;" horiz-adv-x="759" d="M45 0q11 22 19 63t8 66v961q0 25 -8 66t-19 63h309q216 0 306.5 -67.5t93.5 -221.5q3 -138 -63.5 -225.5t-196.5 -96.5q-10 0 -11 -4t9 -10q42 -30 143 -57q1 -19 6.5 -69t16.5 -140t30 -179t43.5 -172t61 -134.5t77.5 -51.5q58 0 74 35q27 -27 23 -49q-10 -51 -90 -58 q-57 -2 -109.5 16t-94 49.5t-79 81t-65.5 101t-54 118.5t-44 125.5t-35 130t-27 123.5t-21 114q-4 18 -14 18q-8 0 -8 -21v-446q0 -24 8.5 -65.5t19.5 -63.5h-309zM326 659q3 -2 7.5 -3.5t8 -2t6.5 -0.5h4h2q136 19 133 267q-1 111 -39 172t-94 59q-28 0 -28 -78v-414z" />
<glyph unicode="=" horiz-adv-x="899" d="M20 219q0 155 66.5 256.5t181.5 104.5q13 0 22 -3t17 -9t10 -7q75 9 120.5 -53.5t23.5 -138.5q-32 65 -105 65q-68 0 -118 -64t-50 -161q0 -81 17 -143.5t42.5 -97.5t60 -57t63.5 -29t59 -7q79 0 129.5 52.5t68.5 127.5t17 170q-2 64 -23 131t-60.5 130.5t-107.5 110.5 t-153 62q13 35 43 50q-191 60 -194 319q-1 42 8 87t35 97.5t67 93.5t111 69t159 30q36 1 92 -11.5t85 -25.5l122 16q-33 -36 -56 -127t-25 -188q-3 -131 18 -199q-49 4 -71 51t-15 103q-27 3 -54.5 32.5t-27.5 59.5q37 8 61.5 33t24.5 65q0 64 -50 97.5t-110 31.5 q-49 -1 -82 -34t-46.5 -84t-12.5 -117q1 -45 23 -95t60 -94.5t96 -76t124 -35.5q-6 -13 -20.5 -28t-26.5 -19q109 -27 186.5 -142t73.5 -286q-2 -143 -63 -263.5t-166.5 -191t-231.5 -70.5q-176 0 -297 120t-121 292zM221 176q0 38 8.5 75t35 70t67.5 35q27 0 46 -17.5 t19 -47.5q0 -26 -20 -49q-13 30 -47 30q-44 0 -63 -44.5t-19 -96.5q0 -75 20 -137q-47 90 -47 182z" />
<glyph unicode="&#x3e;" horiz-adv-x="772" d="M45 0q11 22 19 60.5t8 62.5v973q0 24 -8 62.5t-19 60.5h272q-16 -28 -16 -56q0 -99 117 -262q7 -9 40.5 -55t47 -66.5t40.5 -67t52 -98.5v340q0 206 8 291q40 388 266 389q43 0 70 -25t27 -61q0 -12 -9 -28.5t-14 -18.5q-27 15 -69 15q-191 0 -191 -611v-782q0 -23 9 -62 t20 -61h-135q28 57 18 111q-10 55 -53 113t-113 132.5t-104 120.5q-48 62 -96 157t-70 169v-680q0 -25 7.5 -63t18.5 -60h-143z" />
<glyph unicode="?" horiz-adv-x="684" d="M31 1219q25 18 83 38t130 21q199 3 303 -75.5t104 -235.5q0 -62 -41.5 -128t-100.5 -121t-117.5 -105t-100 -95.5t-41.5 -77.5q0 -64 24 -135h-88q-52 41 -77 106t-23 113q1 49 20 92.5t49.5 76t67 62t72.5 58t66 57.5t48.5 66.5t18.5 79.5q0 190 -180 190 q-43 0 -94.5 -33.5t-65.5 -76.5zM100 90q0 54 37.5 91.5t91.5 37.5q53 0 90 -37.5t37 -91.5q0 -52 -37 -89.5t-90 -37.5q-54 0 -91.5 37t-37.5 90z" />
<glyph unicode="@" horiz-adv-x="1212" d="M20 594q0 140 40.5 246.5t101.5 167.5t144.5 99.5t157.5 51t154 12.5q89 0 169 -17.5t155 -59t129 -104.5t86.5 -160t32.5 -220q1 -129 -29.5 -226t-74.5 -147.5t-100 -79.5t-99.5 -35t-81.5 -1q-17 2 -32 5t-26 5t-21.5 5.5t-17 5t-13.5 6t-10.5 6t-9.5 7t-7 7t-7.5 8.5 t-7.5 8q-20 -33 -62 -52t-79 -17q-63 2 -111 41.5t-75 105t-40 142.5t-12 163q1 198 67.5 307t174.5 115q72 3 137 -59v51h254q-11 -21 -18.5 -67.5t-7.5 -71.5v-525q0 -64 20 -116q6 -2 15 0t23 11.5t28 26t27.5 48t24.5 73.5t17 106.5t6 143.5q-5 496 -424 496 q-69 0 -131 -17t-119 -56t-99 -98t-67.5 -148.5t-27.5 -200.5q-1 -139 29 -249t83.5 -178t121.5 -104.5t145 -38.5q40 -1 89.5 20t66.5 38q-9 -97 -15 -99q-38 -10 -137 -14q-122 -2 -219 34t-169 111.5t-110.5 199t-38.5 288.5zM506 567q-1 -153 29.5 -252.5t74.5 -99.5 q16 0 43 43v608q-14 17 -43 23q-45 3 -73 -86t-31 -236z" />
<glyph unicode="A" horiz-adv-x="1112" d="M-23 702v8q1 110 51 198q52 91 140 91q16 0 41 -10q35 15 59 15q87 0 145 -75.5t68 -168.5l47 407q2 17 2 34q0 40 -11 83q-16 62 -66 109h594q-36 -25 -59 -98q-18 -58 -18 -104q0 -12 1 -24l41 -313q9 -81 47 -104q-17 -21 -60 -43q37 -55 43 -109l72 -578 q4 -44 33 -89.5t65 -69.5q-93 -15 -184 -50t-157 -64t-105 -32q36 43 54 127q12 56 12 120q0 33 -3 67l-34 389q-22 -71 -96 -121t-171 -59l-20 -211v-21q0 -101 43 -160h-217q45 59 61 181l25 211q-137 17 -238 84t-152 165t-53 215zM96 637q0 -151 99 -241t233 -93l43 377 q-7 92 -55 147q-47 54 -141 54h-3q-77 -1 -126.5 -74t-49.5 -170zM129 612q0 60 24.5 107t73.5 53q30 2 50 -14.5t20 -42.5q0 -28 -16 -49q-15 28 -50 28t-53 -35t-18 -79q0 -73 30 -152q-61 78 -61 184zM535 317q81 31 123 103q21 37 21 78t-20 86q83 -11 121 -66l-90 770 q-2 18 -29.5 17t-29.5 -17z" />
<glyph unicode="B" horiz-adv-x="1247" d="M29 274q0 123 72.5 210.5t177.5 88.5q10 0 18.5 -2.5t12 -4.5t10 -7t8.5 -6q9 1 18 1q62 0 102 -54q30 -42 30 -90q0 -23 -7 -48q-33 64 -104 64q-69 0 -119 -64q-48 -60 -47 -148v-11q2 -82 24.5 -147.5t57 -106.5t81 -68t92.5 -38t95 -11q89 1 157 28t111.5 72.5 t71 113t38.5 142.5t11 166q0 172 -41.5 263.5t-105.5 107.5q-31 6 -31 -10v-522q0 -38 20 -78t60 -64q-99 -25 -225.5 -76.5t-190.5 -58.5q34 26 51 76.5t17 91.5v543q0 71 -43 98q8 16 27.5 29t37.5 18q-22 32 -22 111v297q0 107 -13 127q-67 -29 -121.5 -118.5 t-54.5 -197.5q0 -35 19.5 -72.5t52.5 -58.5q-44 -20 -92 -20q-72 0 -107 46t-35 105q0 94 40 169.5t103 122t147.5 77t166.5 42.5q76 11 155 11h13q189 -2 299.5 -92t110.5 -244q0 -59 -21.5 -109t-52.5 -80t-70 -52.5t-69 -32t-54 -12.5l19 -2q18 -2 40 -5t54 -14t61 -27 t59 -46.5t52 -70t35.5 -99.5t13.5 -132q-1 -126 -42.5 -231.5t-109.5 -177.5t-157.5 -122.5t-186 -73.5t-196.5 -23q-81 0 -158 21t-143.5 64t-116 102.5t-78 142t-28.5 177.5zM233 190q0 38 10 73t36 62t63 27q46 0 60 -40q5 -14 5 -27q0 -25 -18 -47q-21 32 -52.5 28 t-47.5 -26q-23 -28 -27 -80q-2 -20 -2 -39q0 -30 4 -56q7 -44 19 -77q-50 97 -50 202zM762 797q0 -8 9 -12.5t17 -2.5q62 9 97 85.5t35 199.5q0 139 -38 212t-98 73q-4 0 -7.5 -2t-5.5 -5.5t-4 -7.5t-2.5 -10t-1.5 -10.5t-1 -12v-11.5v-10.5v-8.5v-477z" />
<glyph unicode="C" horiz-adv-x="888" d="M4 606q22 36 66 49q-18 27 -24 71q-5 33 -5 57v14q7 123 45.5 231.5t104.5 194t167 135t224 49.5t233 -41l123 16q-69 -79 -103 -181.5t-36 -207.5q0 -115 30 -186q-47 2 -81.5 25.5t-50.5 57t-23 66t-4 60.5q-33 3 -56.5 29t-23.5 65q14 -2 27 -2q44 0 73 26 q37 34 37 83q0 60 -40 94.5t-112 34.5q-64 0 -111.5 -49.5t-72 -129.5t-35.5 -158.5t-12 -158.5v-7q0 -33 1 -56.5t12 -56.5t32 -40q-5 -7 -9.5 -12.5t-9 -10t-7.5 -7t-9 -5.5t-8.5 -4.5t-9.5 -5t-10 -4.5q16 -23 20 -50t4 -81v-45v-41v-34q0 -31 1.5 -90.5t7 -104 t14.5 -102t24 -98.5t35 -79t49.5 -59t65.5 -23h16q95 0 147 66q56 72 56 186q0 90 -43.5 146.5t-101.5 56.5q-25 0 -54 -19q-7 18 -7 35q0 25 15 50q25 41 72 57q23 41 70 41q86 0 134.5 -70t51.5 -188v-19q-1 -178 -93 -292q-98 -120 -269 -120q-79 0 -147 27.5 t-116.5 71.5t-88 105t-64.5 123t-43.5 131.5t-27.5 124t-13 106.5q-9 142 -37 153zM564 190q16 36 57 37q110 0 110 -166q0 -42 -18 -92.5t-45 -79.5q32 66 32 150q0 44 -20.5 78.5t-61.5 34.5q-28 0 -43 -29q-17 19 -17 41q0 12 6 26z" />
<glyph unicode="D" horiz-adv-x="1232" d="M8 260q0 126 72 219.5t170 93.5q36 0 49 -20q9 1 18 1q63 0 103 -54q31 -43 31 -92q0 -22 -7 -46q-38 64 -104 64q-70 0 -120 -64q-48 -60 -48 -148v-11q2 -81 24 -146t55.5 -106.5t78 -69.5t90.5 -39.5t94 -11.5h4q156 0 242 74q88 75 128 262q37 174 36 482v48 q-1 162 -11.5 283t-26.5 191t-38.5 112t-43.5 56t-46 14q-23 0 -23 -78v-414q0 -71 43 -98q-22 -33 -63 -47q20 -32 20 -111v-411q0 -39 19.5 -78.5t60.5 -63.5q-99 -25 -225.5 -76.5t-190.5 -58.5q33 26 50.5 77t17.5 91v526q0 72 -43 97q16 33 63 49q-20 32 -20 108v316 q0 108 -12 127q-68 -28 -125 -121q-54 -88 -54 -185v-10q2 -36 21 -73t51 -58q-33 -20 -94 -20q-65 0 -102 46.5t-37 100.5q0 78 28 144t76 111.5t109 79.5t132 54q70 18 140 28q63 9 126 9h13q486 -3 486 -745q0 -444 -182.5 -675t-522.5 -231q-119 0 -218 43.5t-162 114.5 t-97.5 159t-34.5 181zM205 190q0 38 9.5 72.5t35.5 62t63 27.5h2q44 0 59 -39q5 -14 5 -27q0 -25 -19 -48q-21 32 -51.5 28t-46.5 -26q-24 -28 -28 -80q-2 -21 -1 -41q-1 -29 3 -54q6 -43 18 -77q-49 95 -49 202z" />
<glyph unicode="E" d="M12 -154q23 22 40.5 76t17.5 105v571q0 75 -43 98q13 27 63 49q-20 30 -20 109v358q0 40 -18 100t-40 81h449h24.5h25t21.5 -1t24.5 -2.5t21.5 -4.5t24 -7q24 6 56 11.5t52 7.5l21 2q-95 -126 -98 -338q0 -105 24 -207q-59 4 -97 66q-30 49 -30 98q0 13 2 26 q-29 -3 -50.5 13.5t-22.5 46.5q7 -1 13 -1q32 0 56 25q27 27 27 66v8q-3 57 -45.5 92t-93.5 35h-101q23 -38 23 -74v-548q22 67 82 110t133 43q48 0 75 -24.5t27 -57.5q0 -22 -14 -39q4 -13 4 -25q0 -32 -30 -56q-33 -27 -67 -27q-10 0 -20 2q1 2 4.5 5.5t4.5 5t4 4.5 t3.5 4.5t2 5t2 6.5t1.5 7t1 8.5v10.5q0 18 -22.5 38t-53.5 20q-59 0 -93.5 -40.5t-43.5 -97.5v-620q0 -18 -5.5 -41t-15.5 -33h119q65 0 110 38.5t46 115.5q0 37 -18.5 109.5t-18.5 109.5t25 59.5t63 22.5q37 0 37 -11q-25 -13 -41 -55t-16 -90q0 -69 33 -173.5t81 -205.5 q-89 9 -116 25q-38 -15 -140 -15h-469zM401 346q0 104 50 179t147 75q37 -1 59 -18t25 -45q2 -9 2 -18q0 -28 -18 -48q-21 35 -64 35q-68 0 -110.5 -62t-42.5 -141q0 -151 114 -274q-73 45 -117.5 133.5t-44.5 183.5zM481 297q0 31 10 64t35 60.5t58 27.5q29 0 32 -37h-2 q-46 0 -74 -40q-28 -42 -30 -100q0 -18 1.5 -36t3.5 -32t7 -31t8 -27.5t9.5 -25.5t9 -21t9 -20t7.5 -16q-35 43 -59.5 108t-24.5 126z" />
<glyph unicode="F" horiz-adv-x="729" d="M72 1393h448h24.5h27t23 -1t25.5 -2.5t21 -4.5t21 -7q24 6 56 11.5t52 7.5l21 2q-96 -122 -99 -340q0 -99 25 -205q-56 0 -94 65q-32 55 -32 106q0 9 1 19q-29 -3 -51 13.5t-23 46.5q7 -1 13 -1q33 0 57 25q27 27 26 66v8q-3 57 -45.5 92t-93.5 35h-100q22 -37 22 -74 v-632q20 68 89 114q60 40 124 40q10 0 19 -1q40 -4 64 -28t22 -54q0 -21 -15 -39q7 -13 7 -26q1 -27 -31 -51q-38 -29 -73 -28q-8 0 -15 1q14 13 18 22.5t4 32.5q0 18 -22 38t-53 20q-61 0 -95 -40.5t-43 -97.5v-477q0 -185 23.5 -273.5t95.5 -162.5q-53 13 -101.5 43 t-87.5 68.5t-76.5 77.5t-83.5 76.5t-93 58.5q55 37 55 172v489q0 75 -43 98q15 27 64 49q-21 31 -21 109v358q0 40 -17.5 100.5t-39.5 80.5z" />
<glyph unicode="G" horiz-adv-x="946" d="M0 604q5 15 24 31t39 20q-30 46 -30 142v6q0 116 37 223q38 109 106 194t172 136t227 51q122 0 232 -41l125 16q-74 -82 -109 -196q-32 -106 -32 -197v-15q3 -98 30 -167q-46 2 -80.5 25.5t-50.5 57t-22.5 66.5t-3.5 60q-36 0 -58 26.5t-22 67.5q14 -2 26 -2q44 0 74 27 q37 35 37 82q0 60 -42 96q-39 33 -101 33h-11q-64 -1 -111 -51t-71.5 -129t-35.5 -158t-11 -158q0 -143 47 -160q-4 -6 -8 -11.5t-9.5 -10t-8.5 -7.5t-10.5 -6.5t-9 -4.5t-10.5 -5t-10 -4q16 -23 19.5 -49t3.5 -82q0 -3 -0.5 -39t-0.5 -63t1.5 -77.5t4.5 -90.5t9.5 -92.5 t15.5 -92.5t23.5 -82t32.5 -69.5t44 -46.5t56 -21q21 -2 54 7.5t41 25.5q-27 31 -27 100v457q0 39 -16 95.5t-52 84.5q59 7 123 31.5t136.5 47t158.5 28.5q-82 -48 -82 -181v-452q0 -109 35 -150q-58 -74 -153 -120q-92 -46 -213 -46h-5q-83 1 -153.5 28.5t-119.5 71.5 t-88 105t-62.5 123t-39.5 130.5t-22.5 123.5t-7.5 107q-9 142 -35 151z" />
<glyph unicode="H" horiz-adv-x="1325" d="M0 834v5q0 61 22 125q24 66 72.5 113t108.5 47q22 0 39 -10q19 14 61 14q69 0 125 -54t66 -116v254q0 41 -16 97t-52 84h418q-82 -49 -82 -181v-741q49 32 74.5 82.5t25.5 101.5t-10 105q20 1 45 -5t53 -30.5t35 -62.5v550q0 41 -15.5 97t-51.5 84h417q-82 -49 -82 -181 v-362q0 -75 43 -98q-27 -34 -63 -50q20 -30 20 -108v-545q0 -185 23.5 -273.5t95.5 -162.5q-53 13 -101.5 43t-87.5 68.5t-76.5 77.5t-83.5 76.5t-93 58.5q55 37 55 172v487q-9 -57 -64.5 -115t-158.5 -90v-364q0 -132 82 -181h-418q36 28 52 84.5t16 96.5v344 q-106 3 -192 34.5t-140.5 78.5t-92 108.5t-53 121.5t-16.5 120zM129 762q0 -147 89.5 -236t275.5 -102v174q0 75 -43 98q27 34 65 49q-14 19 -18 42t-4 67v12q-15 66 -58.5 102t-105.5 36q-92 0 -146.5 -68t-54.5 -174zM162 737q0 59 25.5 106.5t74.5 53.5q29 2 49.5 -14 t20.5 -43q0 -24 -19 -49q-15 28 -49 28t-52.5 -35t-18.5 -79q0 -73 30 -152q-61 81 -61 184z" />
<glyph unicode="I" horiz-adv-x="452" d="M45 1393h418q-82 -49 -82 -181v-352q0 -70 43 -98q-15 -31 -64 -47q21 -34 21 -111v-555q0 -185 23.5 -273.5t95.5 -162.5q-53 13 -101.5 43t-88 68.5t-77 77.5t-83.5 76.5t-93 58.5q29 20 42.5 69.5t13.5 102.5v501q0 74 -43 97q22 35 63 49q-20 32 -20 108v348 q0 41 -16 97t-52 84z" />
<glyph unicode="J" horiz-adv-x="862" d="M-4 195q2 116 52 185t134 69q49 0 70 -37q48 -15 72 -56q15 -24 15 -50q0 -18 -7 -36q-24 19 -60 19q-55 0 -97 -58.5t-42 -144.5q0 -40 7.5 -76.5t24.5 -69.5t42 -57.5t63 -38.5q35 -12 78 -12h6q27 0 49.5 9.5t38.5 24t28.5 39t20 47t13 56.5t8.5 59t4 62.5t1 59.5 t-0.5 58t-0.5 50v313q0 73 -45 97q14 33 66 49q-14 20 -17.5 42t-3.5 66v328q0 38 -20 78.5t-60 64.5q68 10 138 37t118 54.5t108 51.5t111 29q-78 -65 -102.5 -123.5t-24.5 -130.5v-393q0 -71 43 -98q-20 -33 -65 -47q22 -32 22 -111v-254q0 -61 -5 -116t-17.5 -115.5 t-33 -110.5t-53.5 -96t-76.5 -78t-105 -51t-135.5 -19q-166 0 -265 119q-97 117 -97 304v8zM170 76q0 59 25.5 106t74.5 51q28 3 49 -13.5t21 -43.5q0 -22 -18 -49q-16 31 -50 31t-51.5 -36.5t-17.5 -80.5q0 -65 24 -139q-57 62 -57 174z" />
<glyph unicode="K" horiz-adv-x="808" d="M45 -223q34 26 51 76.5t17 91.5v653q0 75 -43 98q13 27 63 49q-20 30 -20 109v358q0 41 -16 97t-52 84h418q-82 -49 -82 -181v-514l274 574q21 41 21 71q0 32 -25 50h232q-33 -17 -70.5 -57t-50.5 -64l-146 -281q10 -72 27 -179.5t46.5 -275t66 -324t77 -298.5t88 -228.5 t91.5 -86.5q66 0 84 39q8 -5 18 -23t6 -35q-12 -60 -102 -67h-10q-56 -1 -108 21q-56 24 -101.5 64.5t-88 102t-75 125.5t-63 144.5t-51.5 149t-42 149t-33 134.5t-25 114q-6 29 -9 42l-31 -76v-430q0 -37 19.5 -77t60.5 -64q-99 -25 -225.5 -76.5t-190.5 -58.5z" />
<glyph unicode="L" horiz-adv-x="692" d="M-8 1335q68 10 138 37t118.5 54.5t108.5 51.5t112 29q-78 -65 -103.5 -124.5t-25.5 -129.5v-393q0 -71 43 -98q-17 -31 -64 -47q12 -20 15.5 -42t5.5 -69v-614q0 -18 -5.5 -41t-15.5 -33h117q67 0 112 38.5t46 115.5q0 37 -18.5 109.5t-18.5 109.5t25 59.5t63 22.5 q33 0 37 -11q-27 -13 -42 -54.5t-15 -90.5q0 -133 112 -379q-87 9 -114 25q-40 -15 -140 -15h-469q23 22 40.5 76t17.5 105v583q0 72 -43 97q15 33 63 49q-20 32 -20 108v328q0 39 -19.5 79t-60.5 64zM401 346q0 66 19.5 121.5t66 94t113.5 38.5q37 -1 59 -18t25 -45 q2 -9 2 -18q0 -28 -18 -48q-21 35 -64 35q-68 0 -110.5 -62t-42.5 -141q0 -149 112 -274q-72 46 -117 134.5t-45 182.5zM481 297q0 51 28 101.5t77 50.5q29 0 32 -37h-2q-46 0 -74 -40q-28 -42 -30 -100q0 -18 1.5 -36t3.5 -32t7 -31t8 -27.5t9.5 -25.5t9 -21t9 -20t7.5 -16 q-35 43 -60.5 108t-25.5 126z" />
<glyph unicode="M" horiz-adv-x="1112" d="M0 -248q39 44 55.5 120.5t16.5 121.5v616q0 72 -43 97q7 16 26.5 29.5t36.5 19.5q-20 32 -20 108v342q0 123 -62 187h389q-33 -39 -45 -91q-8 -34 -8 -62q0 -15 2 -28q7 -57 21 -94t57 -117q16 -29 29.5 -59.5t24.5 -66t18 -59.5t16 -65.5t12 -56.5t10.5 -59t8.5 -49 l221 620q7 21 7 57q-1 32 -13 70q-14 41 -43 60h405q-82 -49 -82 -187v-346q0 -70 45 -98q-19 -32 -65 -47q20 -32 20 -111v-555q0 -185 23.5 -273.5t95.5 -162.5q-53 13 -101.5 43t-87.5 68.5t-76.5 77.5t-83.5 76.5t-93 58.5q55 37 55 172v821q-42 -114 -92.5 -249.5 t-70.5 -190t-44 -123t-30 -99.5q-7 -32 -11 -68q-3 -25 -3 -51q0 -12 1 -24q5 -73 43 -119h-168q39 56 39 119q0 44 -16.5 101.5t-32.5 94.5t-50.5 109.5t-43.5 91.5q-2 5 -12.5 27t-12.5 27.5t-11 26t-12 30t-11 32t-12 39t-11 43t-12.5 52.5t-12 59.5t-12.5 71.5v-936 q0 -109 47 -152q-32 -4 -104.5 -47t-116.5 -43z" />
<glyph unicode="N" horiz-adv-x="772" d="M0 -248q39 44 55.5 120.5t16.5 121.5v616q0 72 -43 97q7 17 26 31.5t37 17.5q-20 32 -20 108v342q0 123 -62 187h318q-32 -34 -32 -91q0 -12 1 -24q7 -55 32.5 -104t82.5 -130q160 -235 190 -423v342q0 55 0.5 93.5t4 97.5t9.5 101t18 95t28 90t41 75.5t56.5 61.5t75 38 t95.5 15q46 0 81 -28q28 -23 28 -58q0 -8 -1 -16q6 -22 6 -40q0 -52 -47 -73q-8 33 -34 53.5t-64 20.5q-51 0 -95.5 -37.5t-66.5 -110.5q-16 -56 -24.5 -126t-9.5 -117t-1 -135v-103q0 -69 46 -98q-15 -32 -66 -47q14 -20 17 -42.5t3 -68.5v-600q0 -31 13.5 -82.5 t34.5 -75.5h-175q17 24 29 69.5t12 80.5q0 45 -18 97t-55 112.5t-66 101.5t-78 107q-39 51 -77.5 116t-83 179.5t-64.5 232.5v-948q0 -109 47 -152q-32 -4 -104.5 -47t-116.5 -43zM725 1092q0 179 59 274q21 35 55 55t54 17q22 -3 34.5 -19t6.5 -37q-19 8 -38 8 q-23 0 -44 -12q-39 -24 -66 -75q-17 -34 -29 -68t-16 -53t-9.5 -50.5t-6.5 -39.5z" />
<glyph unicode="O" horiz-adv-x="1042" d="M4 606q18 35 66 49q-18 27 -24 71q-5 33 -5 57v14q5 89 24.5 173.5t58.5 164.5t93.5 139t134.5 95t176 36q92 0 169.5 -34.5t133 -92.5t95.5 -136.5t62 -165t28 -179.5q0 -95 -31 -142q51 -15 66 -49q-28 -11 -37 -153q-7 -87 -27 -175.5t-59 -182t-91.5 -165 t-133 -117.5t-175.5 -46q-99 0 -180 44.5t-133 114t-90.5 163.5t-57 182.5t-26.5 181.5q-9 142 -37 153zM326 641q3 -5 6 -10.5t5 -9.5t4 -11t3 -11t2 -12.5t1.5 -12.5t1 -14.5t0.5 -14.5t0.5 -17t0.5 -18v-63q0 -14 -1 -28q-1 -42 1 -81q2 -52 6 -128t16.5 -137t31 -117.5 t50.5 -88t74 -31.5t73.5 31.5t50 88t30.5 117.5t16 137t6 128q1 39 2 80v28q0 58 -1 64q0 5 0.5 18t0.5 17t0.5 14.5t1 14.5t1.5 12.5t2 12.5t3 11t4 11t5 9.5t6 10.5q-2 1 -12 5.5t-12.5 6t-10.5 6.5t-11.5 8.5t-8.5 9.5t-8 13q45 15 45 147v6v7q0 62 -4 122t-16.5 130 t-31.5 122t-53 86q-33 34 -76 33h-2q-46 -1 -81 -35.5t-54 -85.5t-30.5 -121.5t-15 -128.5t-3.5 -122v-7q0 -33 1 -56.5t12 -56.5t32 -40q-7 -13 -18.5 -23t-18.5 -13.5t-26 -12.5zM418 410q2 36 25.5 60t62.5 24q158 0 158 -318q0 -68 -23 -152.5t-59 -140.5q37 92 47 244 q1 15 1 29q0 92 -34 158q-39 76 -92 75q-24 0 -43.5 -13.5t-24.5 -31.5q-18 18 -18 66zM483 305q0 12 10 21.5t31 9.5q39 0 61.5 -67.5t22.5 -127.5q0 -112 -28 -204q7 68 7 127t-7 108q-8 58 -33 96q-24 37 -62 37h-2z" />
<glyph unicode="P" horiz-adv-x="1081" d="M2 987q0 91 39.5 165t103.5 122t147 80q84 32 168 46q78 13 155 13h12q95 0 178 -27t147 -79t101 -135.5t37 -188.5q0 -110 -33 -193t-93.5 -133t-137 -76.5t-171.5 -31.5q-28 0 -34 -14v-486q0 -184 23.5 -273t94.5 -163q-52 13 -100.5 43t-87.5 68.5t-76.5 77.5 t-84 76.5t-93.5 58.5q57 37 57 172v489q0 74 -45 98q19 30 66 49q-14 19 -17.5 42t-3.5 67v326q0 106 -12 127q-69 -29 -123.5 -117t-54.5 -199q0 -35 19.5 -72.5t52.5 -58.5q-52 -23 -93 -23q-21 0 -38 6q-52 18 -77.5 58t-25.5 86zM621 625q5 -4 13.5 -5.5t14.5 -1.5h6 q140 20 150 357v12q0 49 -7 104q-8 61 -25.5 121.5t-51 100t-76.5 39.5q-4 0 -7.5 -2t-6 -5.5t-4.5 -7.5t-3 -10.5t-2 -10.5t-1 -11.5v-11v-11v-8.5v-649z" />
<glyph unicode="Q" horiz-adv-x="1042" d="M4 606q22 36 66 49q-18 27 -24 71q-5 33 -5 57v14q5 89 24.5 173.5t58.5 164.5t93.5 139t134.5 95t176 36q92 0 169.5 -34.5t133 -92.5t95.5 -136.5t62 -165t28 -179.5q0 -95 -31 -142q53 -16 66 -49q-28 -11 -37 -153q-16 -183 -88 -361t-199 -264q48 -2 91 -14.5 t81.5 -35.5t64 -63t31.5 -92q1 -11 1 -21q0 -43 -24 -71q-29 -35 -71 -35q-17 0 -34 9.5t-25 21.5q51 21 51 81v7q-3 71 -62.5 116.5t-179.5 45.5q-65 0 -171.5 -42t-155.5 -42q-76 0 -86 55q0 22 16 43q33 -41 108 -41q40 0 111 21q-102 15 -183.5 85t-131.5 172.5 t-79 209.5t-38 215q-9 142 -37 153zM326 641q3 -5 6 -10.5t5 -9.5t4 -11t3 -11t2 -12.5t1.5 -12.5t1 -14.5t0.5 -14.5t0.5 -17t0.5 -18v-63q-1 -14 -1 -28q0 -42 1 -81q2 -52 6 -128t16.5 -137t31 -117.5t50.5 -88t74 -31.5t73.5 31.5t50 88t30.5 117.5t16.5 137t5.5 128 q2 38 2 80v28q-1 58 -1 64q0 5 0.5 18t0.5 17t0.5 14.5t1 14.5t1.5 12.5t2 12.5t3 11t4 11t5 9.5t6 10.5q-2 1 -9.5 4.5t-9.5 4.5t-8.5 4.5t-9 5.5t-7.5 5.5t-8 7t-6 8t-5 9.5q45 15 45 147v6v7q0 64 -3.5 122t-14.5 129t-30 121.5t-54 85.5t-81 35q-184 0 -184 -493v-7 q0 -33 1 -56.5t12 -56.5t32 -40q-21 -29 -63 -49zM481 -289q20 14 69 26.5t101 12.5q40 0 80 -8t75 -33t36 -63q0 -50 -43 -58q1 9 1 17q0 38 -26 65q-31 33 -75 45.5t-95 12.5q-74 0 -123 -17z" />
<glyph unicode="R" horiz-adv-x="1107" d="M2 987q0 91 39.5 165.5t103.5 122.5t147 80q84 31 168 45q78 13 155 13h12q77 0 144.5 -13.5t127.5 -44t103 -76t67.5 -113.5t24.5 -152q0 -149 -76.5 -242t-202.5 -104q-10 0 -12 -5t10 -12q62 -40 168 -67q0 -25 7.5 -120.5t28 -245.5t49 -286t77.5 -234.5t108 -98.5 q66 0 84 39q29 -19 29 -52q-1 -39 -31.5 -56t-72.5 -17q-81 0 -151.5 34t-121 87t-95.5 136t-74 161.5t-57 184.5t-44 183.5t-37 179.5t-33 154q-2 20 -14 20t-12 -16v-584q0 -37 20 -77t61 -64q-100 -25 -226 -76.5t-191 -58.5q34 26 51.5 76.5t17.5 91.5v653q0 74 -45 98 q13 28 66 49q-14 19 -17.5 42t-3.5 67v326q0 106 -12 127q-70 -29 -124 -116q-54 -85 -54 -196q0 -39 19.5 -76.5t52.5 -58.5q-52 -23 -93 -23q-21 0 -38 6q-52 18 -77.5 58t-25.5 86zM621 729q6 -4 14.5 -5.5t14.5 -1.5l5 1q77 11 113.5 81.5t36.5 223.5q0 65 -8 120 t-25.5 102.5t-50 74.5t-76.5 27q-4 0 -7.5 -2t-6 -5.5t-4.5 -7.5t-3 -10.5t-2 -10.5t-1 -11.5v-11v-11v-8.5v-545z" />
<glyph unicode="S" horiz-adv-x="819" d="M16 -227q41 41 81 144.5t40 209.5q0 46 -21.5 90t-49.5 68q24 12 47 12q11 -1 21 -3q34 -8 46 -32q9 -22 12 -37t2.5 -25.5t-3.5 -44t-5 -67.5v-13q0 -85 60 -159q64 -80 155 -80q92 0 137.5 76t45.5 205q0 161 -106 305t-259 188q15 34 47 47q-104 24 -164 118 q-60 92 -59 236q0 51 16 109q15 54 48 108t80 96.5t118 69.5t156 27q59 0 117 -12.5t90 -28.5l116 17q-67 -74 -100 -171t-33 -194q0 -104 29 -176q-45 3 -78 25.5t-49 53.5t-22 61.5t-3 54.5q-34 5 -56.5 29.5t-22.5 62.5q16 -3 30 -3q40 0 67 23q36 31 36 76 q0 119 -119 119q-49 0 -85 -22t-53.5 -57.5t-25.5 -71.5t-8 -74q0 -80 44.5 -161t125.5 -138t174 -62q-3 -14 -20 -29t-31 -18q30 -9 61.5 -29.5t64 -57.5t58 -84.5t41.5 -115.5t16 -145q0 -94 -31 -187t-86 -170.5t-141 -125.5t-186 -48q-118 0 -213 39q-20 -6 -57.5 -13.5 t-66 -11.5t-28.5 -3zM18 478q0 38 29 66q31 30 84 31q62 0 108 -28.5t70.5 -76.5t35.5 -100t11 -108q0 -84 -35.5 -164.5t-68.5 -109.5q61 119 61 250q0 107 -53 170t-123 63q-30 0 -53.5 -15.5t-30.5 -41.5q-13 6 -23 24q-12 22 -12 40zM115 367q0 45 51 45q24 0 52 -24 t44 -64q20 -45 20 -108q0 -18 -2 -37q-7 -88 -40 -156q20 90 20 174q0 78 -42 129q-35 43 -83 43q-10 0 -20 -2z" />
<glyph unicode="T" horiz-adv-x="923" d="M16 1061q0 75 41 146t112 126t174.5 88t219.5 33q89 0 250 -22.5t238 -22.5q176 0 317 66q5 -17 5 -33q1 -48 -43 -90q-58 -56 -171 -56q-81 0 -139 7.5t-160 31.5q-41 -52 -41 -164v-311q0 -70 45 -98q-22 -34 -65 -47q14 -20 17 -42.5t3 -68.5v-555q0 -184 24 -273 t95 -163q-52 13 -100.5 43t-88 68.5t-77 77.5t-83.5 76.5t-93 58.5q55 37 55 172v501q0 74 -43 97q18 35 65 49q-14 20 -18 43t-4 65v348q0 14 1.5 29t7 46t21.5 58t40 41q-14 0 -41.5 1.5t-44.5 1.5h-5q-52 0 -108 -19q-58 -20 -108 -56.5t-81.5 -96t-31.5 -130.5 q0 -72 39.5 -128t115.5 -60q69 0 121 47q2 -12 2 -23q0 -53 -45 -93q-43 -38 -104 -38q-16 0 -33 3q-15 -15 -53 -15q-93 0 -160.5 85.5t-67.5 195.5zM238 1096q0 106 77 186q-17 -24 -30 -63t-13 -76q0 -42 20.5 -73.5t61.5 -31.5q32 0 47 23q14 -18 14 -36q-1 -17 -13 -33 q-22 -30 -57 -30q-5 0 -11 1q-43 3 -69.5 44t-26.5 89z" />
<glyph unicode="U" horiz-adv-x="774" d="M-2 1393h418q-82 -49 -82 -181v-1251q0 -50 45.5 -84.5t83.5 -34.5q48 2 95.5 34t47.5 85v1012q0 339 82 498t244 159q47 0 84 -30q27 -22 27 -51q0 -10 -3 -21q8 -16 8 -35q0 -15 -6 -31q-12 -36 -41 -47q-3 30 -28 53t-64 23q-51 0 -89 -29.5t-58.5 -76t-34.5 -105 t-16 -116.5q-3 -59 -5 -112q-1 -24 -1 -45q0 -25 2 -44v-103q0 -70 43 -98q-12 -30 -64 -47q21 -34 21 -111v-514q0 -81 20 -137q-28 -79 -123 -135t-209 -56q-126 1 -218 57.5t-132 133.5q21 53 21 137v520q0 74 -43 97q20 35 65 49q-14 20 -18 43t-4 65v348q0 41 -16 97 t-52 84zM729 1092q1 57 10 112.5t26.5 110.5t52.5 89t81 34q23 0 34 -19t5 -43q-15 13 -39 13q-39 0 -72 -33.5t-52.5 -83.5t-31 -96.5t-14.5 -83.5z" />
<glyph unicode="V" horiz-adv-x="784" d="M0 1393h432q-66 -40 -66 -150q0 -12 1 -25v-6l116 -972l109 723q3 22 9 68.5t10.5 81t13.5 85.5t18.5 90t24.5 86t32.5 81.5t42.5 69t54.5 56.5t68 35.5t82.5 13.5q49 0 86 -26q30 -22 30 -59q0 -8 -1 -17q7 -19 7 -38q0 -16 -5 -31q-10 -34 -41 -44q-3 29 -30.5 51.5 t-65.5 22.5h-3q-39 0 -71 -23q-34 -24 -56.5 -61t-41.5 -91.5t-30 -105t-21 -112.5q-7 -46 -17 -128t-14 -106q-3 -18 -3 -34q0 -48 29 -76q-17 -25 -59 -39q2 -8 3.5 -15t1.5 -15.5v-13.5t-1.5 -16.5t-2 -16.5t-3.5 -20.5t-4 -23.5l-76 -506q-7 -44 -7 -91q0 -87 22 -181 q34 -146 102 -199q-60 13 -123 54.5t-108.5 87t-108.5 96t-119 75.5q21 20 28 74q3 25 3 48q0 26 -4 48l-72 512q-8 71 -55 97q17 35 59 49q-32 52 -41 108l-47 348q-7 42 -29.5 97.5t-58.5 83.5zM731 1092q7 40 18.5 87t33 111t56 105.5t74.5 42.5q27 0 40.5 -18t7.5 -42 q-13 11 -35 11q-34 0 -68.5 -36t-60 -90.5t-41 -96t-25.5 -74.5z" />
<glyph unicode="W" horiz-adv-x="1286" d="M0 1393h432q-66 -40 -66 -150q0 -12 1 -25v-6l104 -972l150 972q1 6 1 14q0 32 -15 80q-18 58 -56 87h432q-51 -31 -69 -85q-16 -48 -15 -87v-9l115 -972l94 723q3 19 9 70t10 82.5t13.5 85.5t18.5 90t24.5 85t33.5 81.5t43.5 68t55 56.5t68.5 34.5t84 13.5q55 0 89 -26 q26 -20 26 -55q0 -10 -2 -21q6 -18 6 -36q0 -16 -5 -32q-11 -32 -42 -45q-3 35 -31 55.5t-67 20.5q-43 -2 -77.5 -30.5t-55 -68t-37 -95t-24.5 -98t-15 -90.5q0 -3 -0.5 -5t-1 -5t-0.5 -5q-9 -47 -21.5 -128.5t-17.5 -103.5q-2 -15 -2 -28q0 -53 29 -82q-7 -13 -27 -25 t-33 -14q3 -11 4.5 -20.5t0.5 -23t-1.5 -19t-3.5 -27.5t-4 -31l-65 -506q-5 -43 -6 -88q0 -90 22 -186q32 -145 98 -197q-49 10 -97.5 39t-90.5 66t-83 75t-89.5 75t-95.5 58q20 20 26 74q3 23 3 44q0 28 -5 52l-104 770l-129 -841q-1 -9 -1 -19q0 -32 12 -76q16 -56 54 -86 h-432q22 13 37 34.5t21 38.5t8 44.5t1.5 35.5t-1.5 28l-66 583q-8 71 -55 97q7 16 25 30t34 19q-32 52 -41 108l-47 348q-7 42 -29.5 97.5t-58.5 83.5zM1260 1092q30 188 74 269q46 84 108 85q27 0 40 -21.5t7 -46.5q-13 11 -35 11q-35 0 -69 -35.5t-59.5 -91t-40.5 -95.5 t-25 -75z" />
<glyph unicode="X" horiz-adv-x="757" d="M0 1393h432q-61 -37 -61 -117q0 -29 8 -64l80 -288q84 275 125 383q12 34 20 56.5t24.5 60t31.5 63.5t37.5 56.5t46.5 50t55 33t65 15.5h5q45 0 85 -31q31 -25 31 -59q0 -12 -4 -24q6 -22 6 -40q0 -52 -47 -73q-11 74 -98 74q-45 0 -89.5 -47t-84.5 -146 q-28 -66 -84 -230.5t-76 -270.5l240 -760q41 -136 96 -174q-92 -15 -183.5 -50t-157.5 -64t-104 -32q18 13 39 63q20 50 32 119q4 26 5 52q0 43 -12 86l-121 418l-127 -418q-4 -18 -6 -52q-1 -10 -1 -20q0 -27 4 -57q5 -42 21 -60h-219q32 29 59.5 88.5t39.5 100.5l176 592 l-191 585q-38 132 -98 181zM633 1081q89 320 209 324q27 2 45.5 -19t11.5 -45q-17 11 -43 11q-30 -1 -60.5 -23.5t-52 -48.5t-46.5 -71t-36 -67t-28 -61z" />
<glyph unicode="Y" horiz-adv-x="782" d="M8 1393h432q-19 -11 -32 -28t-19 -31.5t-9.5 -36t-3.5 -33t0.5 -31t0.5 -21.5l117 -536q19 80 40 177.5t34.5 165.5t31.5 145.5t33.5 131.5t38.5 109.5t49 92.5t61.5 67t79.5 47q50 20 99 20h9q53 -2 83 -28q15 -13 20.5 -35t-0.5 -41q6 -22 6 -40q0 -52 -47 -73 q-8 23 -15.5 36.5t-28.5 25.5t-54 12q-29 0 -53 -10.5t-44.5 -35.5t-36 -53.5t-32 -79t-29.5 -97t-32 -121.5q-44 -179 -52 -230q-4 -24 -4 -44q0 -41 17 -66q-8 -12 -30 -25t-40 -18q3 -4 4 -10.5t0.5 -15.5t-1.5 -17.5t-3.5 -20t-4.5 -18.5t-5 -18t-4 -15l-23 -82v-463 q0 -185 23.5 -273.5t95.5 -162.5q-53 13 -101.5 43t-87.5 68.5t-76.5 77.5t-83.5 76.5t-93 58.5q55 37 55 172v403l-23 98q-6 26 -31 53.5t-55 43.5q18 36 47 51q-21 25 -38 96q-2 6 -3 10l-94 348q-31 137 -88 181zM743 1092q69 344 185 344q26 0 39.5 -21.5t7.5 -44.5 q-12 10 -35 10q-32 0 -66 -34.5t-60.5 -87t-43.5 -93.5t-27 -73z" />
<glyph unicode="Z" horiz-adv-x="782" d="M0 -154q28 21 62 81.5t44 99.5l168 583q8 26 8 46q0 35 -24 51q27 34 76 49q-3 8 -3 21q0 32 17 93l107 385q8 33 41 74h-146q-50 0 -93 -35.5t-46 -91.5v-8q1 -39 27 -66q25 -25 56 -25q6 0 13 1q-3 -52 -74 -60q1 -8 1 -15q0 -51 -34 -109q-40 -66 -91 -66 q25 92 25 191q0 53 -7 105q-20 154 -92 249q76 -7 129 -21q54 15 160 15h491q-28 -21 -62 -81.5t-44 -99.5l-95 -348q-8 -29 -8 -50q0 -36 21 -52q-25 -32 -76 -47q5 -14 5 -32q0 -32 -15 -79l-176 -614q-4 -15 -16.5 -40t-24.5 -34h184q66 0 112 38.5t50 113.5q1 8 1 16 q-1 38 -15 98q-18 74 -17 109q0 30 24.5 53.5t61.5 26.5q37 0 41 -11q-64 -36 -64 -167q0 -65 39 -183.5t66 -171.5q-90 9 -115 25q-45 -17 -139 -17h-553zM498 317q1 33 7.5 69t21.5 74.5t36.5 68.5t54.5 49.5t72 19.5q38 0 66 -19t28 -51q0 -34 -20 -57q-21 35 -64 35 q-46 0 -83.5 -35.5t-55.5 -84.5t-18 -97q0 -128 106 -260q-71 43 -111 122.5t-40 165.5zM575 276q0 58 28 114t75 56q18 0 27.5 -10t9.5 -24h-2q-47 0 -78 -41q-31 -42 -31 -111q0 -38 8.5 -76t15 -55.5t21.5 -52.5q-74 94 -74 200z" />
<glyph unicode="[" horiz-adv-x="464" d="M49 -117l4 1456h357l6 -108q-22 11 -62.5 18.5t-66.5 7.5h-70v-1294h72q23 0 64 9t63 20l-4 -109h-363z" />
<glyph unicode="\" horiz-adv-x="978" d="M16 1343h103l842 -1435h-101z" />
<glyph unicode="]" horiz-adv-x="464" d="M49 -8q22 -11 63 -20t64 -9h74v1294h-72q-26 0 -66.5 -7.5t-62.5 -18.5l6 108h357l4 -1456h-363z" />
<glyph unicode="^" horiz-adv-x="976" d="M145 1147l261 246h151l262 -246l-94 -12l-244 145l-241 -145z" />
<glyph unicode="_" horiz-adv-x="1128" />
<glyph unicode="`" horiz-adv-x="626" d="M139.5 1132q-15.5 32 1.5 60q19 26 55 25t76 -27q124 -105 217 -209h-47q-13 4 -60 19t-66 22t-54 21t-67 30q-40 27 -55.5 59z" />
<glyph unicode="a" d="M0 0q14 22 29 60.5t20 62.5l164 971q3 19 1 61t-9 64h270q-5 -21 -5 -62.5t3 -66.5l184 -961q5 -22 22 -64t32 -65h-310q7 22 7 63.5t-5 65.5l-20 109q-58 -27 -113 -27q-53 0 -104 25l-16 -113q-4 -20 -2.5 -60.5t8.5 -62.5h-156zM176 307q42 -16 74 -19.5t53.5 1 t63.5 18.5l-107 563z" />
<glyph unicode="b" horiz-adv-x="792" d="M45 0q11 22 19 63t8 66v961q0 25 -8 66t-19 63h303q202 0 288.5 -60t88.5 -198q0 -57 -14 -101.5t-34 -71t-53 -46.5t-61 -29t-67 -17q42 -4 73 -10t72 -26.5t67 -52.5t45 -91t19 -139q0 -107 -25 -179.5t-78.5 -116t-129 -62t-185.5 -19.5h-309zM327.5 1126.5 q-0.5 -4.5 0.5 -16.5v-12v-361q0 -12 24 -12q56 0 86 62q28 58 27 160v14q-3 106 -31.5 150t-85.5 44q-7 0 -11.5 -3.5t-6.5 -12t-2.5 -13zM328 655l2 -508q0 -48 4 -71q4 -13 20 -13q32 0 57 14t46 47.5t32 97t11 155.5q0 280 -146 287q-26 3 -26 -9z" />
<glyph unicode="c" horiz-adv-x="692" d="M20 608q0 100 12 186t44.5 170t84 143t135.5 95.5t193 36.5q114 0 193 -49l-49 -113q-17 30 -59.5 60t-81.5 30q-33 0 -60 -12t-46 -39.5t-32.5 -54.5t-21.5 -75t-13 -82t-7 -94.5t-2.5 -93.5t-0.5 -96v-12v-36q0 -16 -1 -34q0 -16 1 -34q1 -36 1 -71.5t3 -71t7 -69 t11 -64.5t16.5 -58t23.5 -49.5t31 -38.5t40 -24.5t50 -8.5q39 0 81.5 29t59.5 59l49 -110q-77 -52 -193 -52q-128 0 -221 48t-146 136t-77.5 199t-24.5 250z" />
<glyph unicode="d" horiz-adv-x="813" d="M45 0q11 22 19 63t8 66v961q0 25 -8 66t-19 63h285q106 0 186 -29t132.5 -80.5t85 -129.5t45.5 -168q12 -84 12 -188v-16q-3 -608 -422 -608h-324zM328 126q0 -6 0.5 -16t2 -17.5t4 -14.5t7 -11t10.5 -4h2q32 0 60 30q28 31 51.5 94t37 171.5t13.5 249.5 q0 138 -14.5 246.5t-38.5 172t-51.5 96t-57.5 32.5q-26 0 -26 -82v-926v-7v-14z" />
<glyph unicode="e" horiz-adv-x="598" d="M45 0q11 22 20 63.5t9 65.5v961q0 24 -9 65.5t-20 63.5h524l6 -99q-23 11 -64 19t-65 8h-114q-4 -9 -4 -47v-404h59q84 0 129 19v-117q-47 20 -129 20h-59v-495q0 -40 4 -51q104 0 125 2q82 6 129 26l-8 -100h-533z" />
<glyph unicode="f" horiz-adv-x="585" d="M45 1219h524l6 -99q-23 11 -64 19t-65 8h-114q-4 -9 -4 -47v-463h65q94 0 131 18v-108q-33 16 -131 16h-65v-434q0 -26 7.5 -66.5t18.5 -62.5h-307q11 22 19 62.5t8 66.5v961q0 24 -9 65.5t-20 63.5z" />
<glyph unicode="g" horiz-adv-x="802" d="M20 608q1 107 15.5 196t48 171.5t85.5 139.5t133.5 90.5t186.5 33.5q114 0 193 -49l-49 -113q-17 30 -59.5 60t-81.5 30q-33 0 -60 -12t-46 -39t-32.5 -54t-21.5 -74.5t-13 -81t-7 -93.5t-2.5 -93t-0.5 -96v-12q3 -228 7 -289q19 -270 106 -270q25 0 44 15.5t19 54.5v481 q0 23 -8 65t-18 64h305q-9 -24 -18 -65.5t-9 -63.5v-328q0 -80 23 -137q-53 -73 -141 -118q-86 -44 -192 -44h-5q-75 1 -135.5 23t-101.5 57.5t-71.5 88t-48 105.5t-28 119.5t-14 120t-3.5 117.5z" />
<glyph unicode="h" horiz-adv-x="837" d="M45 0q11 22 19 62.5t8 66.5v961q0 25 -8 66t-19 63h309q-11 -22 -19.5 -63.5t-8.5 -65.5v-459q47 -18 86 -18q0 1 2 1q40 0 96 19v457q0 25 -8 66t-19 63h310q-11 -22 -20 -63.5t-9 -65.5v-961q0 -25 9 -66t20 -63h-310q11 22 19 62.5t8 66.5v412q-40 -13 -94.5 -13 t-89.5 13v-412q0 -25 8.5 -66t19.5 -63h-309z" />
<glyph unicode="i" horiz-adv-x="399" d="M45 0q11 22 20 63t9 66v961q0 24 -9 65.5t-20 63.5h309q-11 -21 -18.5 -62.5t-7.5 -66.5v-961q0 -26 7.5 -66.5t18.5 -62.5h-309z" />
<glyph unicode="j" horiz-adv-x="598" d="M0 25l47 110q47 -82 113 -82q21 0 38 9t28.5 27.5t20 39t13 51.5t7.5 56.5t3.5 63t0.5 62.5t-0.5 63.5t-0.5 57.5v607q0 25 -7.5 66.5t-18.5 62.5h307q-10 -22 -18.5 -64t-8.5 -65v-601q0 -106 -8 -181t-31 -142t-63.5 -107t-106 -63t-157.5 -23q-45 0 -89.5 16t-68.5 36 z" />
<glyph unicode="k" horiz-adv-x="763" d="M45 0q11 22 19 62.5t8 66.5v963q0 24 -8 64.5t-19 62.5h309q-12 -23 -22 -64t-10 -63v-463l172 467q9 23 15 61.5t5 61.5h160q-20 -22 -42 -59.5t-32 -63.5l-82 -189l187 -778q7 -28 24.5 -68t34.5 -61h-307q3 18 3 41q0 38 -9 88l-78 422l-49 -127v-295q0 -24 9 -65.5 t21 -63.5h-309z" />
<glyph unicode="l" horiz-adv-x="579" d="M45 0q9 19 18 61.5t9 67.5v961q0 25 -8 66t-19 63h303q-11 -21 -18.5 -62.5t-7.5 -66.5v-959q0 -47 6 -59h112q23 0 65 8t64 18l-6 -98h-518z" />
<glyph unicode="m" horiz-adv-x="1038" d="M45 0q11 22 19 60.5t8 62.5v971q0 23 -8 63.5t-19 61.5h299q-2 -30 -2 -52.5t2 -38.5q21 -121 84 -276q74 -175 82 -301l192 577q6 10 4.5 40t-12.5 51h299q-10 -22 -17 -63.5t-7 -65.5v-961q0 -24 7 -65.5t17 -63.5h-307q11 22 20 63.5t9 65.5v700l-234 -661 q-5 -15 -5 -32q0 -32 18 -73h-140q17 33 17 75q0 14 -2 30q-2 23 -8 58t-30 108t-59 139q-37 75 -65.5 175.5t-36.5 180.5v-706q0 -23 9 -62t20 -61h-154z" />
<glyph unicode="n" horiz-adv-x="768" d="M45 0q11 22 20 61t9 62v973q0 23 -9 62t-20 61h274q-11 -21 -14 -56q-1 -10 -1 -19q0 -47 24 -99q29 -62 92 -144q9 -12 32 -42t33.5 -44t30 -43t31 -52t26 -56t25.5 -68v500q0 22 -8.5 61t-18.5 62h152q-11 -22 -19 -60.5t-8 -62.5v-973q0 -24 8 -62.5t19 -60.5h-141 q20 42 20 96v15q-1 34 -91 153t-179 211q-55 58 -104 155t-56 165v-672q0 -24 8 -62.5t19 -60.5h-154z" />
<glyph unicode="o" horiz-adv-x="841" d="M23 612v21q1 79 7 147q8 77 25 149.5t47.5 128t74 97.5t106 64t141.5 22q93 0 163.5 -32t115 -86.5t71.5 -136.5t37 -172q8 -75 8 -165v-37q-2 -140 -22.5 -250.5t-65 -200t-122.5 -137.5q-76 -47 -183 -47h-4q-395 3 -399 635zM317 612q0 -142 4.5 -241t16 -174 t32.5 -111q20 -35 50 -35h2q61 1 83.5 129.5t22.5 431.5q0 141 -5 240t-17 174q-12 74 -32 110q-20 35 -48 35h-2q-61 -1 -84 -129t-23 -430z" />
<glyph unicode="p" horiz-adv-x="772" d="M45 0q11 22 19 62.5t8 66.5v961q0 26 -8 66.5t-19 62.5h309q219 0 310 -97q88 -95 88 -288v-9q0 -81 -19.5 -145.5t-47 -105t-69 -70t-75.5 -43t-77 -21.5t-62.5 -9t-43.5 -1q-32 0 -32 -14v-287q0 -25 8.5 -66t19.5 -63h-309zM326 506q4 -4 11 -6t12 -2h5q68 9 98 82 q29 71 29 230v11q-3 336 -127 336q-6 0 -11 -4t-7.5 -11.5t-4.5 -15t-2.5 -18.5t-0.5 -17.5v-17v-12.5q-2 -485 -2 -555z" />
<glyph unicode="q" horiz-adv-x="849" d="M23 610v15q0 90 11 171q12 89 42 171.5t76 142.5t116 96q69 35 155 35h5q111 -1 191.5 -51t125.5 -139t65 -199q17 -99 17 -217v-25q-10 -409 -196 -559q4 -39 21 -95.5t53 -109.5t77 -53q58 0 72 35q23 -8 23 -43q0 -25 -19 -40t-36 -18t-34 -3q-30 0 -57.5 6t-51 19 t-43 25t-39 34.5t-31.5 36t-28 39.5t-22 36t-19 35t-14 27q-45 -5 -59 -5h-4q-98 0 -176 53q-78 55 -125 147t-71 202t-25 231zM317 610q0 -140 5.5 -240.5t17.5 -174t33 -109.5q20 -35 49 -35h2q62 1 87.5 131.5t25.5 427.5q0 186 -10 306.5t-35 187.5q-24 67 -63 67h-1 q-63 -1 -87 -130.5t-24 -430.5z" />
<glyph unicode="r" horiz-adv-x="784" d="M45 0q11 22 19 63t8 66v961q0 25 -8 66t-19 63h309q214 1 312 -71q96 -70 96 -210v-6q-2 -116 -71.5 -198t-196.5 -89q-9 0 -10.5 -6t8.5 -12q19 -13 50 -28t52 -23l22 -9l125 -436q6 -24 27 -66.5t39 -64.5h-315q1 8 1 20q0 37 -14 113l-129 469q-6 19 -12 19 q-12 0 -12 -21v-471q0 -24 8.5 -65.5t19.5 -63.5h-309zM326 694q3 -2 7.5 -3.5t8 -2t6.5 -0.5h4h2q69 9 103.5 65.5t34.5 176.5q0 113 -39.5 169t-98.5 56q-28 0 -28 -78v-383z" />
<glyph unicode="s" horiz-adv-x="684" d="M25 956q14 125 118 205t254 80q124 0 203 -57l-49 -109q-22 38 -65 65t-85 27q-77 1 -113 -49q-34 -46 -34 -114v-11q2 -25 16 -53t44 -63.5t52.5 -59t66.5 -67t61 -60.5q169 -165 169 -339q0 -45 -12 -91q-34 -133 -132.5 -208t-237.5 -75q-159 0 -248 56l55 119 q73 -97 184 -97q61 0 112 45.5t52 128.5q0 22 -4 43t-9.5 37.5t-19.5 38.5t-23 35t-32 38t-35 37.5t-42.5 43l-45.5 45.5q-57 56 -91 96t-64 91q-32 50 -42 104q-6 33 -6 69q0 24 3 49z" />
<glyph unicode="t" horiz-adv-x="645" d="M4 1120l6 99h623l8 -99q-22 10 -64.5 18.5t-64.5 8.5h-63h-3v-1018q0 -23 8.5 -65t18.5 -64h-303q11 22 19 63t8 66v1018h-64q-23 0 -65 -8.5t-64 -18.5z" />
<glyph unicode="u" horiz-adv-x="751" d="M45 1219h307q-11 -22 -19.5 -63.5t-8.5 -65.5v-922q0 -35 26 -58t52.5 -30.5t48.5 -7.5q16 0 35 4t41 13.5t36.5 30t14.5 48.5v922q0 25 -8 66t-19 63h156q-11 -22 -19 -63t-8 -66v-811q0 -83 22 -138q-32 -74 -119 -117.5t-200 -43.5q-242 0 -332 161q21 53 21 138v811 q0 25 -8 66t-19 63z" />
<glyph unicode="v" d="M0 1219h307q-6 -23 -6 -59q1 -2 1 -6q0 -40 5 -64l133 -758l119 764q4 20 2.5 61t-8.5 62h158q-15 -23 -29.5 -62t-17.5 -61l-164 -971q-5 -20 -3 -61t9 -64h-270q7 22 7 63.5t-5 65.5l-185 961q-5 26 -21 67t-32 62z" />
<glyph unicode="w" horiz-adv-x="1148" d="M0 1219h324q-12 -20 -17 -62q-3 -26 -3 -46q0 -12 1 -21l72 -754l112 760q4 26 4 49q0 40 -12 74h2h320q-5 -21 -5 -62.5t3 -66.5l112 -768l80 774q1 14 1 27q0 53 -13 96h168q-14 -22 -27 -58.5t-18 -64.5l-121 -971q-2 -23 -2 -42q0 -52 12 -83h-291q9 22 9 65t-6 64 l-136 864l-123 -868q-1 -18 -1 -34q0 -52 12 -91h-289q7 22 7 60q-1 3 -1 5q0 41 -6 64l-117 961q-13 77 -51 129z" />
<glyph unicode="x" horiz-adv-x="712" d="M0 0q20 23 42 61.5t28 61.5l168 473l-164 494q-8 24 -30 65.5t-40 63.5h307q-1 -10 -1 -21q0 -43 18 -108l73 -236l82 242q20 60 20 103q0 10 -1 20h151q-20 -23 -41.5 -61.5t-27.5 -61.5l-135 -375l196 -592q9 -27 29 -67.5t39 -61.5h-310q4 22 -1 63t-13 66l-104 324 l-113 -330q-18 -57 -18 -96q0 -14 2 -27h-156z" />
<glyph unicode="y" horiz-adv-x="692" d="M4 1219h301q-3 -14 -0.5 -37.5t8 -55.5t6.5 -36l91 -394l116 396q7 21 10 63q1 19 1 34q0 18 -2 30h155q-38 -44 -61 -127l-166 -545v-418q0 -26 7.5 -66.5t18.5 -62.5h-309q11 22 20 63t9 66v418l-143 543q-5 23 -24.5 65t-37.5 64z" />
<glyph unicode="z" horiz-adv-x="622" d="M20 0l302 1149h-162q-24 0 -65 -8t-64 -19l8 97h563l-291 -1147h160q22 0 62.5 8t64.5 18l-6 -98h-572z" />
<glyph unicode="{" horiz-adv-x="520" d="M29 639q32 18 67.5 71.5t36.5 106.5q6 233 10 274q14 167 80 232q46 46 127 59q27 4 85 4t85 -6l-43 -114q-13 27 -48 35t-69 -1q-23 -5 -39 -22t-24 -46t-12.5 -60.5t-4.5 -77.5t1 -85.5t2.5 -95t1.5 -96.5q-1 -47 -30 -98.5t-56 -73.5q29 -31 58 -85.5t28 -106.5 q-24 -490 75 -533q27 -12 65 0t52 33q31 -84 43 -111q-27 -7 -86.5 -9.5t-79.5 1.5q-46 7 -80.5 29t-58 47.5t-39 76t-24 88.5t-13 113.5t-5 122.5t-1.5 142q0 53 -36 112t-68 74z" />
<glyph unicode="|" horiz-adv-x="1857" d="M63 707q0 174 69.5 334t186.5 276.5t280 186t341 69.5q179 0 339.5 -68.5t274.5 -185t181 -276.5t67 -336q0 -119 -31 -232.5t-86.5 -209t-135.5 -175.5t-175 -136t-208 -87t-232 -31q-118 0 -230.5 31t-208 87t-176 136t-137 175.5t-88 209t-31.5 232.5zM86 707 q0 -231 114 -427t309 -309.5t425 -113.5q174 0 331 67t270 181t180 271t67 331q0 172 -65.5 327.5t-177 268.5t-268 180t-331.5 67q-232 0 -429 -114.5t-311 -308.5t-114 -420zM143 707q0 159 63 305t169.5 251.5t254 168.5t310.5 63q218 0 398.5 -106t283 -287t102.5 -395 q0 -162 -62.5 -309t-168 -253t-252 -168.5t-307.5 -62.5t-307 62.5t-252.5 168.5t-169 253t-62.5 309zM342 270q0 -19 13.5 -34t35.5 -15q17 0 28.5 7.5t14.5 14.5l2 7q-10 -8 -22.5 -2.5t-12.5 18.5q0 21 25 21h72q30 0 43 20q14 -20 41 -20h77q1 6 3.5 17t3.5 20h-9 q-19 0 -33.5 9t-22.5 27.5t-13.5 35t-7 45t-2 43t-0.5 42.5v377q0 108 22.5 156.5t79.5 48.5l10 35h-108q-26 0 -41 -21q-9 21 -43 21h-76q-8 0 -13.5 6.5t-5.5 15.5q0 17 12.5 22t26.5 -3q-20 24 -53 24q-20 0 -31.5 -14t-11.5 -33q0 -27 23 -40t53 -13q20 0 35 -9 t23.5 -28.5t14 -35.5t7 -46t2 -43t0.5 -43v-377q0 -26 -0.5 -41.5t-2.5 -43t-7.5 -45t-14 -36t-23 -27.5t-34.5 -9q-43 0 -61.5 -18t-18.5 -36zM602 645q0 -14 9 -24.5t22 -10.5q19 0 29 13h24v-209q0 -101 -17 -147.5t-61 -71.5l15 -21h63q30 0 41 23q9 -23 39 -23h63 l11 21q-39 22 -56.5 71t-17.5 148v209h92v45h-92v116q0 100 17 149t57 75l-11 20h-63q-12 0 -23 -8t-16 -19q-15 27 -41 27h-63l-15 -20q44 -27 61 -75t17 -149v-116h-24q-12 8 -29 8q-13 0 -22 -9t-9 -22zM754 1212l16 -28q32 1 53.5 -16t32 -49.5t14.5 -68.5t4 -83v-650 q0 -85 -24 -159q-28 -58 -80 -58l-14 -28h116q26 0 37 22q18 -22 41 -22h115l-12 28q-33 0 -51.5 14t-30.5 44q-23 61 -23 164v301h246q10 -13 27 -13q15 0 24.5 10.5t9.5 24.5t-9.5 22.5t-24.5 8.5q-11 0 -27 -8h-246v299q0 37 1.5 62.5t8 56t18 49t33 31t50.5 12.5h69 q24 0 45.5 -16.5t30.5 -39.5q25 -58 25 -164q0 -7 -0.5 -35.5t0 -42.5t2.5 -40.5t7.5 -41.5t14.5 -31.5t25 -24t37 -7.5q31 0 52.5 18.5t21.5 47.5q0 28 -15.5 45.5t-38.5 17.5q-15 0 -25.5 -8t-14.5 -16t-5 -15q8 4 17 4q7 0 13.5 -6t6.5 -16q0 -9 -7.5 -17t-16.5 -8 q-18 0 -28.5 27t-10.5 59q0 90 30 175t90 135h27q30 0 53 12t23 39q0 19 -12.5 34t-32.5 15q-14 0 -26.5 -7t-18.5 -13l-6 -7q13 9 26 3t13 -21q0 -6 -6.5 -13.5t-12.5 -7.5h-461q-28 0 -37 -20q-17 20 -41 20h-118zM780 324q2 -9 6 -20.5t5 -16.5h65v37h-76zM963 287h65 l8 37h-73v-37zM981 195l8 -21h66q27 0 39 23q9 -23 39 -23h67l6 21q-39 22 -56 71t-17 148v194h-78v-194q0 -101 -16 -147.5t-58 -71.5zM981 1008q42 -27 58 -74.5t16 -149.5v-102h78v102q0 100 17 149.5t56 74.5l-6 20h-67q-11 0 -23 -8.5t-16 -18.5q-15 27 -39 27h-66z M1153 324q3 -26 8 -37h291q25 0 25 -21q0 -13 -11.5 -18.5t-25.5 2.5q0 -3 2 -8t14 -13t31 -8q21 0 34 15t13 34q0 8 -3 15.5t-10 17t-23.5 15.5t-39.5 6h-24q8 4 14 10.5t16 24.5t11 20q25 42 55 49q1 0 -3 2t-12.5 7.5t-17.5 13t-20 21t-19 28.5q-51 94 -149 94 q-59 0 -102.5 -36t-43.5 -95q0 -48 25.5 -69t62.5 -21q28 0 46 16.5t18 42.5q0 53 -45 53q-20 0 -30.5 -11.5t-10.5 -29.5q0 -11 4.5 -18t8.5 -8l5 -2q-3 5 1 13.5t12 8.5q14 0 14 -18q0 -25 -31 -25q-20 0 -35.5 20t-15.5 44q0 31 22 57.5t60 26.5q54 0 80 -28t26 -77 q0 -33 -14 -56.5t-38 -35.5t-49 -17t-52 -5h-74z" />
<glyph unicode="}" horiz-adv-x="520" d="M0 -158l43 111q14 -21 52 -33t65 0q97 42 78 533q-3 52 26 106t58 86q-28 22 -56 74t-28 98q-1 41 0 96.5t2 95t0.5 85.5t-4.5 78t-12.5 60.5t-24.5 45.5t-39 22q-34 9 -69 1t-48 -35q-31 89 -43 114q27 6 85 6t85 -4q50 -8 86.5 -27.5t59.5 -54t37 -71.5t20.5 -95.5 t9 -108.5t4.5 -128q1 -53 2 -80q0 -53 36 -106.5t69 -71.5q-34 -15 -69.5 -73.5t-35.5 -112.5q-3 -267 -19 -365q-28 -173 -124 -227q-35 -20 -80 -27q-20 -3 -78.5 -1t-87.5 9z" />
<glyph unicode="~" horiz-adv-x="1087" d="M53 506q22 59 120 127.5t212 64.5q53 -2 101 -19.5t78.5 -37t73.5 -35.5t87 -16q183 0 242 78l69 -41q-18 -35 -49 -69t-73.5 -63.5t-99 -46.5t-116.5 -14q-55 2 -106.5 19t-84.5 37t-73 36t-74 17q-62 2 -129.5 -18t-107.5 -60z" />
<glyph unicode="&#xa1;" horiz-adv-x="395" d="M53 -463q10 23 18.5 64t8.5 65l18 881h199l20 -881q0 -25 7.5 -66t17.5 -63h-289zM63 762q0 52 38.5 89.5t91.5 37.5q52 0 89 -37t37 -90q0 -54 -36.5 -91.5t-89.5 -37.5t-91.5 37.5t-38.5 91.5z" />
<glyph unicode="&#xa2;" horiz-adv-x="598" d="M55 717q0 88 16 161t49.5 135t93 101.5t140.5 50.5l-6 166q0 10 -4 37.5t-8 34.5h100q-10 -17 -10 -72l-6 -162q79 0 139 -34l-41 -80q-14 21 -43.5 37t-56.5 16q-39 0 -66.5 -42.5t-40 -110t-17.5 -125.5t-5 -113q0 -49 4.5 -102.5t16.5 -123t40 -113.5t68 -44 q26 -1 55.5 15.5t44.5 37.5q33 -68 41 -84q-59 -32 -137 -35l6 -149q0 -55 10 -72h-100q4 7 8 34.5t4 37.5l4 153q-105 15 -173 76.5t-97 153t-29 215.5z" />
<glyph unicode="&#xa3;" horiz-adv-x="948" d="M31 684l6 127h119v207q9 144 114 224t267 85q58 1 106 -14t72 -37l-47 -98q-15 27 -53 47.5t-78 21.5q-59 5 -103 -41.5t-45 -113.5v-281h301l6 -127q-22 11 -62.5 19t-66.5 8h-178v-342q-1 -56 -6 -90t-14 -61.5t-11 -37.5q22 10 101 10q27 0 97.5 -42t111.5 -42 q60 0 101.5 16.5t78.5 65.5l70 -43q-18 -34 -29.5 -53.5t-35.5 -48.5t-49 -44.5t-65.5 -28t-89.5 -13.5q-48 -1 -89 11.5t-64 29t-52.5 30t-56.5 13.5q-151 4 -207 -66l-88 25q62 100 62 176v535h-4q-63 0 -119 -27z" />
<glyph unicode="&#xa5;" horiz-adv-x="716" d="M10 1219h301q-4 -29 17 -129l92 -394l115 396q7 22 10 63t-2 64h153q-28 -33 -61 -127l-164 -529v-4q9 0 61.5 2.5t75.5 3.5v-129l-137 6v-100q79 0 137 6v-129l-137 6v-96q0 -25 7.5 -66t17.5 -63h-308q10 23 18.5 64t8.5 65v96l-139 -6v129q44 -4 139 -8v102l-139 -6 v129q15 -1 62.5 -4t76.5 -4v6l-141 527q-7 26 -26.5 67t-37.5 62z" />
<glyph unicode="&#xa8;" horiz-adv-x="686" d="M123 1126q0 40 28 68.5t68 28.5t68 -28.5t28 -68.5q0 -38 -28 -65t-68 -27t-68 27t-28 65zM371 1126q0 40 28 68.5t68 28.5t68 -28.5t28 -68.5q0 -38 -28 -65t-68 -27t-68 27t-28 65z" />
<glyph unicode="&#xad;" horiz-adv-x="516" d="M2 551q30 62 85.5 117t109.5 55q35 0 84 -36t88 -36q59 0 110 35q-31 -61 -85.5 -115.5t-108.5 -54.5q-37 0 -88 35t-86 35q-64 0 -109 -35z" />
<glyph unicode="&#xb0;" horiz-adv-x="499" d="M63 1077q0 69 54.5 119.5t132.5 50.5t134 -50.5t56 -119.5q0 -71 -55.5 -120.5t-134.5 -49.5t-133 48.5t-54 121.5zM141 1077q0 -41 31.5 -70.5t77.5 -29.5q43 0 75.5 29.5t32.5 70.5t-32.5 71t-75.5 30q-45 0 -77 -29.5t-32 -71.5z" />
<glyph unicode="&#xb4;" horiz-adv-x="612" d="M123 985q102 114 217 207q40 27 76 28.5t55 -24.5q16 -30 2 -61t-53 -56q-32 -16 -67.5 -30.5t-56.5 -22t-66 -22t-60 -19.5h-47z" />
<glyph unicode="&#xb7;" horiz-adv-x="354" d="M53 604q0 54 37 91.5t90 37.5t90 -37.5t37 -91.5q0 -52 -37.5 -89.5t-89.5 -37.5t-89.5 37.5t-37.5 89.5z" />
<glyph unicode="&#xb8;" horiz-adv-x="741" d="M262 -424l23 82q9 -18 30 -32.5t39 -14.5q24 1 39.5 8t21.5 19t7.5 22t1.5 27q-1 27 -16 47.5t-35 35t-40.5 30.5t-34.5 40.5t-15 57.5q0 37 77 106h82q-7 -6 -23 -17.5t-22.5 -17t-12.5 -18t-5 -27.5q1 -22 28 -50t59 -51.5t59 -56.5t28 -65q1 -76 -48.5 -116 t-142.5 -38q-59 4 -100 29z" />
<glyph unicode="&#xba;" horiz-adv-x="479" d="M82 1100q0 61 46 104t112 43q67 0 114 -42.5t47 -104.5q0 -63 -46.5 -105.5t-114.5 -42.5q-67 0 -112.5 42.5t-45.5 105.5zM147 1100q0 -37 26.5 -61.5t66.5 -24.5q37 0 64.5 25t27.5 61q0 35 -27.5 60.5t-64.5 25.5q-39 0 -66 -25t-27 -61z" />
<glyph unicode="&#xbf;" horiz-adv-x="690" d="M37 -162q1 55 42 119t99 121.5t116.5 112t100.5 107.5t45 91t-2 68.5t-26 74.5h90q52 -41 77 -106t23 -113q-1 -67 -34 -124.5t-80.5 -99.5t-95.5 -81.5t-85 -89.5t-43 -106q-8 -76 43.5 -136.5t151.5 -64.5q41 0 86 30t65 66l45 -121q-22 -17 -81 -37t-130 -20 q-201 -3 -306 75t-101 234zM332 764q0 52 37 89.5t90 37.5t90 -37.5t37 -89.5q0 -54 -37 -91.5t-90 -37.5t-90 37.5t-37 91.5z" />
<glyph unicode="&#xc0;" horiz-adv-x="1155" d="M-23 702q-2 115 50.5 206t140.5 91q16 0 41 -10q35 15 59 15q87 0 145 -75.5t68 -168.5l47 407q7 55 -9 117t-66 109h594q-36 -25 -59 -98t-17 -128l41 -313q9 -81 47 -104q-17 -21 -60 -43q37 -55 43 -109l72 -578q4 -44 33 -89.5t65 -69.5q-93 -15 -184 -50t-157 -64 t-105 -32q37 43 54.5 127.5t8.5 186.5l-34 389q-22 -71 -96 -121t-171 -59l-20 -211q-5 -116 43 -181h-217q45 59 61 181l25 211q-137 17 -238 84t-152 165t-53 215zM96 637q0 -151 99 -241t233 -93l43 377q-8 92 -55.5 147t-143.5 54q-77 -1 -126.5 -74t-49.5 -170z M129 612q0 60 24.5 107t73.5 53q30 2 50 -14.5t20 -42.5q0 -28 -16 -49q-15 28 -50 28t-53 -35t-18 -79q0 -73 30 -152q-61 78 -61 184zM516 1584.5q-15 32.5 2 60.5q19 26 55.5 25t75.5 -28q128 -108 217 -208h-47q-18 6 -60 19.5t-63.5 21t-56 21.5t-66.5 30 q-42 26 -57 58.5zM535 317q81 30 123 102.5t1 164.5q83 -11 121 -66l-90 770q0 18 -29.5 17t-29.5 -17z" />
<glyph unicode="&#xc1;" horiz-adv-x="1155" d="M-23 702q-2 115 50.5 206t140.5 91q16 0 41 -10q35 15 59 15q87 0 145 -75.5t68 -168.5l47 407q7 55 -9 117t-66 109h594q-36 -25 -59 -98t-17 -128l41 -313q9 -81 47 -104q-17 -21 -60 -43q37 -55 43 -109l72 -578q4 -44 33 -89.5t65 -69.5q-93 -15 -184 -50t-157 -64 t-105 -32q37 43 54.5 127.5t8.5 186.5l-34 389q-22 -71 -96 -121t-171 -59l-20 -211q-5 -116 43 -181h-217q45 59 61 181l25 211q-137 17 -238 84t-152 165t-53 215zM96 637q0 -151 99 -241t233 -93l43 377q-8 92 -55.5 147t-143.5 54q-77 -1 -126.5 -74t-49.5 -170z M129 612q0 60 24.5 107t73.5 53q30 2 50 -14.5t20 -42.5q0 -28 -16 -49q-15 28 -50 28t-53 -35t-18 -79q0 -73 30 -152q-61 78 -61 184zM496 1438q102 114 217 207q40 27 76 28.5t55 -24.5q16 -30 2 -61t-53 -56q-32 -16 -67.5 -30.5t-56.5 -22t-66 -22t-60 -19.5h-47z M535 317q81 30 123 102.5t1 164.5q83 -11 121 -66l-90 770q0 18 -29.5 17t-29.5 -17z" />
<glyph unicode="&#xc2;" horiz-adv-x="1155" d="M-23 702q-2 115 50.5 206t140.5 91q16 0 41 -10q35 15 59 15q87 0 145 -75.5t68 -168.5l47 407q7 55 -9 117t-66 109h594q-36 -25 -59 -98t-17 -128l41 -313q9 -81 47 -104q-17 -21 -60 -43q37 -55 43 -109l72 -578q4 -44 33 -89.5t65 -69.5q-93 -15 -184 -50t-157 -64 t-105 -32q37 43 54.5 127.5t8.5 186.5l-34 389q-22 -71 -96 -121t-171 -59l-20 -211q-5 -116 43 -181h-217q45 59 61 181l25 211q-137 17 -238 84t-152 165t-53 215zM96 637q0 -151 99 -241t233 -93l43 377q-8 92 -55.5 147t-143.5 54q-77 -1 -126.5 -74t-49.5 -170z M129 612q0 60 24.5 107t73.5 53q30 2 50 -14.5t20 -42.5q0 -28 -16 -49q-15 28 -50 28t-53 -35t-18 -79q0 -73 30 -152q-61 78 -61 184zM500 1452l168 213h98l168 -213l-70 -10l-147 119l-148 -119zM535 317q81 30 123 102.5t1 164.5q83 -11 121 -66l-90 770q0 18 -29.5 17 t-29.5 -17z" />
<glyph unicode="&#xc3;" horiz-adv-x="1155" d="M-23 702q-2 115 50.5 206t140.5 91q16 0 41 -10q35 15 59 15q87 0 145 -75.5t68 -168.5l47 407q7 55 -9 117t-66 109h594q-36 -25 -59 -98t-17 -128l41 -313q9 -81 47 -104q-17 -21 -60 -43q37 -55 43 -109l72 -578q4 -44 33 -89.5t65 -69.5q-93 -15 -184 -50t-157 -64 t-105 -32q37 43 54.5 127.5t8.5 186.5l-34 389q-22 -71 -96 -121t-171 -59l-20 -211q-5 -116 43 -181h-217q45 59 61 181l25 211q-137 17 -238 84t-152 165t-53 215zM96 637q0 -151 99 -241t233 -93l43 377q-8 92 -55.5 147t-143.5 54q-77 -1 -126.5 -74t-49.5 -170z M129 612q0 60 24.5 107t73.5 53q30 2 50 -14.5t20 -42.5q0 -28 -16 -49q-15 28 -50 28t-53 -35t-18 -79q0 -73 30 -152q-61 78 -61 184zM494 1524q78 137 188 112q26 -4 79 -28.5t79 -30.5q44 -9 82 47l36 -22v6q-85 -140 -186 -119q-23 5 -71.5 29.5t-73.5 29.5 q-54 11 -95 -47zM535 317q81 30 123 102.5t1 164.5q83 -11 121 -66l-90 770q0 18 -29.5 17t-29.5 -17z" />
<glyph unicode="&#xc4;" horiz-adv-x="1155" d="M-23 702q-2 115 50.5 206t140.5 91q16 0 41 -10q35 15 59 15q87 0 145 -75.5t68 -168.5l47 407q7 55 -9 117t-66 109h594q-36 -25 -59 -98t-17 -128l41 -313q9 -81 47 -104q-17 -21 -60 -43q37 -55 43 -109l72 -578q4 -44 33 -89.5t65 -69.5q-93 -15 -184 -50t-157 -64 t-105 -32q37 43 54.5 127.5t8.5 186.5l-34 389q-22 -71 -96 -121t-171 -59l-20 -211q-5 -116 43 -181h-217q45 59 61 181l25 211q-137 17 -238 84t-152 165t-53 215zM96 637q0 -151 99 -241t233 -93l43 377q-8 92 -55.5 147t-143.5 54q-77 -1 -126.5 -74t-49.5 -170z M129 612q0 60 24.5 107t73.5 53q30 2 50 -14.5t20 -42.5q0 -28 -16 -49q-15 28 -50 28t-53 -35t-18 -79q0 -73 30 -152q-61 78 -61 184zM481 1561q0 41 27 68.5t67 27.5t68.5 -27.5t28.5 -68.5q0 -37 -29 -65t-68 -28t-66.5 28t-27.5 65zM535 317q81 30 123 102.5t1 164.5 q83 -11 121 -66l-90 770q0 18 -29.5 17t-29.5 -17zM727 1561q0 41 28.5 68.5t67.5 27.5q40 0 68.5 -27.5t28.5 -68.5q0 -37 -29 -65t-68 -28q-38 0 -67 28t-29 65z" />
<glyph unicode="&#xc5;" horiz-adv-x="1155" d="M-23 702q-2 115 50.5 206t140.5 91q16 0 41 -10q35 15 59 15q87 0 145 -75.5t68 -168.5l47 407q7 55 -9 117t-66 109h594q-36 -25 -59 -98t-17 -128l41 -313q9 -81 47 -104q-17 -21 -60 -43q37 -55 43 -109l72 -578q4 -44 33 -89.5t65 -69.5q-93 -15 -184 -50t-157 -64 t-105 -32q37 43 54.5 127.5t8.5 186.5l-34 389q-22 -71 -96 -121t-171 -59l-20 -211q-5 -116 43 -181h-217q45 59 61 181l25 211q-137 17 -238 84t-152 165t-53 215zM96 637q0 -151 99 -241t233 -93l43 377q-8 92 -55.5 147t-143.5 54q-77 -1 -126.5 -74t-49.5 -170z M129 612q0 60 24.5 107t73.5 53q30 2 50 -14.5t20 -42.5q0 -28 -16 -49q-15 28 -50 28t-53 -35t-18 -79q0 -73 30 -152q-61 78 -61 184zM535 317q81 30 123 102.5t1 164.5q83 -11 121 -66l-90 770q0 18 -29.5 17t-29.5 -17zM559 1571q0 61 46 104t112 43q67 0 113.5 -42.5 t46.5 -104.5q0 -63 -46.5 -106.5t-113.5 -43.5q-68 0 -113 43t-45 107zM625 1571q0 -37 26.5 -62.5t65.5 -25.5q37 0 63.5 25.5t26.5 62.5q0 35 -26.5 59.5t-63.5 24.5q-39 0 -65.5 -24.5t-26.5 -59.5z" />
<glyph unicode="&#xc6;" horiz-adv-x="1470" d="M-10 698q5 48 23 99.5t46.5 95.5t69.5 72.5t86 27.5q26 0 39 -8q24 8 57 8q59 0 102 -37.5t61.5 -89.5t19.5 -110l88 411q29 141 -45 226h510h48.5h45.5t37.5 -0.5t36.5 -1.5t28.5 -2.5t27.5 -4t21 -6.5q23 6 55 11.5t53 7.5l21 2q-72 -95 -91.5 -249.5t18.5 -295.5 q-53 0 -93 66.5t-32 123.5q-71 8 -74 60q40 -6 69 24t27 74q-4 57 -46.5 92t-92.5 35h-102q9 -15 16.5 -38.5t7.5 -35.5v-563q21 68 89.5 114.5t142.5 39.5q40 -4 64 -28t22 -54q-4 -26 -17 -39q23 -41 -23 -76.5t-87 -27.5q13 13 16.5 22t3.5 33q0 18 -21.5 37.5 t-52.5 19.5q-61 0 -94.5 -40t-42.5 -97v-606q0 -17 -5.5 -41t-16.5 -33h102q82 0 137 56.5t49 168.5q-1 23 -4.5 63.5t-3.5 56.5t6 38.5t21 40.5q17 21 45 29.5t48 6t21 -8.5q-36 -18 -61 -78t-25 -115q0 -86 20 -188.5t38 -147.5q-90 9 -113 23q-42 -15 -194 -15h-390 q22 21 40 81t18 100v387q-31 -70 -111.5 -120t-179.5 -61l-49 -210q-23 -112 18 -177h-217q56 64 86 177l53 213q-197 24 -291.5 152t-78.5 310zM92 633q-10 -76 9.5 -140t61 -105t97 -64t117.5 -25l96 377q6 94 -27 146t-102 55q-98 7 -168 -64.5t-84 -179.5zM114.5 585 q2.5 93 43.5 134q62 64 118 41q10 -4 17.5 -13.5t10.5 -22.5t-2.5 -30t-20.5 -32q-8 23 -28.5 27.5t-40.5 -3.5t-32 -22q-26 -29 -33.5 -80t-2.5 -90.5t14 -69.5q-46 68 -43.5 161zM485 313q87 32 139.5 104t24.5 165q29 -4 61.5 -20.5t49.5 -45.5v737q0 13 -2.5 26t-9 24 t-19.5 7.5t-31 -24.5zM1153 283q-5 53 3.5 105.5t31 101t66.5 81.5t104 39q53 4 80.5 -24t25.5 -68q-4 -40 -30 -57q-9 25 -31.5 40t-48.5 15q-64 0 -113.5 -61t-50.5 -164q0 -123 57 -240q-28 28 -58.5 96t-35.5 136zM1222.5 239.5q-6.5 80.5 14.5 135.5q16 39 41.5 61.5 t44.5 22.5q23 0 39.5 -11t13.5 -32q-45 9 -77 -18t-48 -79q-9 -27 -10 -61.5t2.5 -60t9 -60.5t7.5 -51q-31 73 -37.5 153.5z" />
<glyph unicode="&#xc7;" horiz-adv-x="882" d="M4 606q22 36 66 49q-18 27 -24.5 70.5t-4.5 71.5q7 123 45.5 231.5t104.5 194t167 135t224 49.5t233 -41l123 16q-73 -82 -108 -196.5t-32 -212t31 -166.5q-47 2 -81.5 25.5t-50.5 57t-23 66t-4 60.5q-33 3 -56.5 29t-23.5 65q63 -10 100 24.5t37 82.5q0 60 -41.5 96 t-110.5 33q-52 -1 -93.5 -35.5t-66.5 -86.5t-41.5 -120t-23 -130.5t-6.5 -123.5v-7q0 -33 1 -56.5t12 -56.5t32 -40q-5 -7 -9.5 -12.5t-9 -10t-7.5 -7t-9 -5.5t-8.5 -4.5t-9.5 -5t-10 -4.5q3 -5 6 -10.5t5 -9.5t4 -11t3 -11t2 -12.5t1.5 -12.5t1 -14.5t0.5 -14.5t0.5 -17 t0.5 -18q0 -4 -0.5 -63t1.5 -108.5t7 -126t18.5 -136t34 -116.5t55.5 -90t81 -36q106 -6 162.5 65.5t56.5 186.5q0 56 -19.5 103t-48.5 70.5t-64.5 29.5t-66.5 -19q-17 44 8 85t72 57q19 34 70 37q85 -3 134 -70.5t52 -183.5q3 -125 -38.5 -222t-125 -152.5t-196.5 -56.5 q-24 -20 -21 -49q1 -22 27.5 -50t58.5 -51.5t59.5 -56.5t28.5 -65q1 -76 -48 -116t-142 -38q-63 5 -103 29l23 82q9 -18 30.5 -32.5t39.5 -14.5q24 1 39.5 8t22 19t8 22.5t1.5 26.5q-1 27 -16 47.5t-35.5 35t-41 30.5t-35 40.5t-15.5 57.5q0 29 53 82q-95 14 -171 71 t-121.5 130.5t-78 167.5t-46 168t-19.5 145q-9 142 -37 153zM557.5 185q7.5 29 30.5 36q70 22 117 -41q20 -26 26 -77.5t-9.5 -112.5t-53.5 -101q15 32 25 72.5t7 88t-26 75.5q-16 22 -47.5 26t-51.5 -28q-25 33 -17.5 62z" />
<glyph unicode="&#xc8;" horiz-adv-x="727" d="M12 -154q23 22 40.5 76t17.5 105v571q0 75 -43 98q13 27 63 49q-20 30 -20 109v358q0 40 -18 100t-40 81h449h24.5h25t21.5 -1t24.5 -2.5t21.5 -4.5t24 -7q24 6 56 11.5t52 7.5l21 2q-95 -126 -98 -338q0 -105 24 -207q-59 3 -97 65.5t-28 124.5q-29 -3 -50.5 13.5 t-22.5 46.5q40 -6 69.5 24t26.5 74q-3 57 -45.5 92t-93.5 35h-101q23 -38 23 -74v-548q22 67 82 110t133 43q48 0 75 -24.5t27 -57.5q0 -22 -14 -39q16 -47 -26 -81.5t-87 -24.5q1 2 4.5 5.5t4.5 5t4 4.5t3.5 4.5t2 5t2 6.5t1.5 7t1 8.5v10.5q0 18 -22.5 38t-53.5 20 q-59 0 -93.5 -40.5t-43.5 -97.5v-620q0 -18 -5.5 -41t-15.5 -33h119q65 0 110 38.5t46 115.5q0 37 -18.5 109.5t-18.5 109.5t25 59.5t63 22.5q37 0 37 -11q-25 -13 -41 -55t-16 -90q0 -69 33 -173.5t81 -205.5q-89 9 -116 25q-38 -15 -140 -15h-469zM199 1585q-15 32 2 60 q19 26 55 25t76 -28q128 -108 217 -208h-47q-16 5 -61 19.5t-65 21.5t-55 21t-67 30q-40 27 -55 59zM401 346q0 104 50 179t147 75q37 -1 59 -18t25 -45q7 -39 -16 -66q-21 35 -64 35q-68 0 -110.5 -62t-42.5 -141q0 -151 114 -274q-73 45 -117.5 133.5t-44.5 183.5z M481 297q0 31 10 64t35 60.5t58 27.5q29 0 32 -37q-48 1 -76 -40.5t-30 -99.5q0 -18 1.5 -36t3.5 -32t7 -31t8 -27.5t9.5 -25.5t9 -21t9 -20t7.5 -16q-35 43 -59.5 108t-24.5 126z" />
<glyph unicode="&#xc9;" horiz-adv-x="727" d="M12 -154q23 22 40.5 76t17.5 105v571q0 75 -43 98q13 27 63 49q-20 30 -20 109v358q0 40 -18 100t-40 81h449h24.5h25t21.5 -1t24.5 -2.5t21.5 -4.5t24 -7q24 6 56 11.5t52 7.5l21 2q-95 -126 -98 -338q0 -105 24 -207q-59 3 -97 65.5t-28 124.5q-29 -3 -50.5 13.5 t-22.5 46.5q40 -6 69.5 24t26.5 74q-3 57 -45.5 92t-93.5 35h-101q23 -38 23 -74v-548q22 67 82 110t133 43q48 0 75 -24.5t27 -57.5q0 -22 -14 -39q16 -47 -26 -81.5t-87 -24.5q1 2 4.5 5.5t4.5 5t4 4.5t3.5 4.5t2 5t2 6.5t1.5 7t1 8.5v10.5q0 18 -22.5 38t-53.5 20 q-59 0 -93.5 -40.5t-43.5 -97.5v-620q0 -18 -5.5 -41t-15.5 -33h119q65 0 110 38.5t46 115.5q0 37 -18.5 109.5t-18.5 109.5t25 59.5t63 22.5q37 0 37 -11q-25 -13 -41 -55t-16 -90q0 -69 33 -173.5t81 -205.5q-89 9 -116 25q-38 -15 -140 -15h-469zM178 1438 q99 111 215 207q40 27 77 28.5t56 -24.5q17 -30 2 -61t-55 -56q-32 -16 -67 -30.5t-57.5 -22t-64 -21.5t-59.5 -20h-47zM401 346q0 104 50 179t147 75q37 -1 59 -18t25 -45q7 -39 -16 -66q-21 35 -64 35q-68 0 -110.5 -62t-42.5 -141q0 -151 114 -274q-73 45 -117.5 133.5 t-44.5 183.5zM481 297q0 31 10 64t35 60.5t58 27.5q29 0 32 -37q-48 1 -76 -40.5t-30 -99.5q0 -18 1.5 -36t3.5 -32t7 -31t8 -27.5t9.5 -25.5t9 -21t9 -20t7.5 -16q-35 43 -59.5 108t-24.5 126z" />
<glyph unicode="&#xca;" horiz-adv-x="727" d="M12 -154q23 22 40.5 76t17.5 105v571q0 75 -43 98q13 27 63 49q-20 30 -20 109v358q0 40 -18 100t-40 81h449h24.5h25t21.5 -1t24.5 -2.5t21.5 -4.5t24 -7q24 6 56 11.5t52 7.5l21 2q-95 -126 -98 -338q0 -105 24 -207q-59 3 -97 65.5t-28 124.5q-29 -3 -50.5 13.5 t-22.5 46.5q40 -6 69.5 24t26.5 74q-3 57 -45.5 92t-93.5 35h-101q23 -38 23 -74v-548q22 67 82 110t133 43q48 0 75 -24.5t27 -57.5q0 -22 -14 -39q16 -47 -26 -81.5t-87 -24.5q1 2 4.5 5.5t4.5 5t4 4.5t3.5 4.5t2 5t2 6.5t1.5 7t1 8.5v10.5q0 18 -22.5 38t-53.5 20 q-59 0 -93.5 -40.5t-43.5 -97.5v-620q0 -18 -5.5 -41t-15.5 -33h119q65 0 110 38.5t46 115.5q0 37 -18.5 109.5t-18.5 109.5t25 59.5t63 22.5q37 0 37 -11q-25 -13 -41 -55t-16 -90q0 -69 33 -173.5t81 -205.5q-89 9 -116 25q-38 -15 -140 -15h-469zM145 1452l168 213h99 l170 -213l-70 -10l-147 119l-150 -119zM401 346q0 104 50 179t147 75q37 -1 59 -18t25 -45q7 -39 -16 -66q-21 35 -64 35q-68 0 -110.5 -62t-42.5 -141q0 -151 114 -274q-73 45 -117.5 133.5t-44.5 183.5zM481 297q0 31 10 64t35 60.5t58 27.5q29 0 32 -37q-48 1 -76 -40.5 t-30 -99.5q0 -18 1.5 -36t3.5 -32t7 -31t8 -27.5t9.5 -25.5t9 -21t9 -20t7.5 -16q-35 43 -59.5 108t-24.5 126z" />
<glyph unicode="&#xcb;" horiz-adv-x="727" d="M12 -154q23 22 40.5 76t17.5 105v571q0 75 -43 98q13 27 63 49q-20 30 -20 109v358q0 40 -18 100t-40 81h449h24.5h25t21.5 -1t24.5 -2.5t21.5 -4.5t24 -7q24 6 56 11.5t52 7.5l21 2q-95 -126 -98 -338q0 -105 24 -207q-59 3 -97 65.5t-28 124.5q-29 -3 -50.5 13.5 t-22.5 46.5q40 -6 69.5 24t26.5 74q-3 57 -45.5 92t-93.5 35h-101q23 -38 23 -74v-548q22 67 82 110t133 43q48 0 75 -24.5t27 -57.5q0 -22 -14 -39q16 -47 -26 -81.5t-87 -24.5q1 2 4.5 5.5t4.5 5t4 4.5t3.5 4.5t2 5t2 6.5t1.5 7t1 8.5v10.5q0 18 -22.5 38t-53.5 20 q-59 0 -93.5 -40.5t-43.5 -97.5v-620q0 -18 -5.5 -41t-15.5 -33h119q65 0 110 38.5t46 115.5q0 37 -18.5 109.5t-18.5 109.5t25 59.5t63 22.5q37 0 37 -11q-25 -13 -41 -55t-16 -90q0 -69 33 -173.5t81 -205.5q-89 9 -116 25q-38 -15 -140 -15h-469zM145 1561 q0 41 27.5 68.5t67.5 27.5t68 -27.5t28 -68.5q0 -37 -28.5 -65t-67.5 -28t-67 28t-28 65zM391 1561q0 41 28.5 68.5t67.5 27.5q40 0 68.5 -27.5t28.5 -68.5q0 -37 -29 -65t-68 -28q-38 0 -67 28t-29 65zM401 346q0 104 50 179t147 75q37 -1 59 -18t25 -45q7 -39 -16 -66 q-21 35 -64 35q-68 0 -110.5 -62t-42.5 -141q0 -151 114 -274q-73 45 -117.5 133.5t-44.5 183.5zM481 297q0 31 10 64t35 60.5t58 27.5q29 0 32 -37q-48 1 -76 -40.5t-30 -99.5q0 -18 1.5 -36t3.5 -32t7 -31t8 -27.5t9.5 -25.5t9 -21t9 -20t7.5 -16q-35 43 -59.5 108 t-24.5 126z" />
<glyph unicode="&#xcc;" horiz-adv-x="520" d="M45 1393h418q-82 -49 -82 -181v-352q0 -70 43 -98q-15 -31 -64 -47q21 -34 21 -111v-555q0 -185 23.5 -273.5t95.5 -162.5q-53 13 -101.5 43t-88 68.5t-77 77.5t-83.5 76.5t-93 58.5q29 20 42.5 69.5t13.5 102.5v501q0 74 -43 97q22 35 63 49q-20 32 -20 108v348 q0 41 -16 97t-52 84zM95 1584q-15 33 3 61q18 27 54.5 25.5t74.5 -28.5q99 -73 219 -208h-47q-22 7 -62 19t-63 19.5t-57 22t-65 31.5q-42 25 -57 58z" />
<glyph unicode="&#xcd;" horiz-adv-x="520" d="M45 1393h418q-82 -49 -82 -181v-352q0 -70 43 -98q-15 -31 -64 -47q21 -34 21 -111v-555q0 -185 23.5 -273.5t95.5 -162.5q-53 13 -101.5 43t-88 68.5t-77 77.5t-83.5 76.5t-93 58.5q29 20 42.5 69.5t13.5 102.5v501q0 74 -43 97q22 35 63 49q-20 32 -20 108v348 q0 41 -16 97t-52 84zM76 1438q87 101 215 207q40 27 77 28.5t56 -24.5q17 -30 2 -61t-55 -56q-32 -16 -67 -30.5t-57.5 -22t-64 -21.5t-59.5 -20h-47z" />
<glyph unicode="&#xce;" horiz-adv-x="520" d="M43 1452l168 213h98l170 -213l-69 -10l-148 119l-149 -119zM45 1393h418q-82 -49 -82 -181v-352q0 -70 43 -98q-15 -31 -64 -47q21 -34 21 -111v-555q0 -185 23.5 -273.5t95.5 -162.5q-53 13 -101.5 43t-88 68.5t-77 77.5t-83.5 76.5t-93 58.5q29 20 42.5 69.5 t13.5 102.5v501q0 74 -43 97q22 35 63 49q-20 32 -20 108v348q0 41 -16 97t-52 84z" />
<glyph unicode="&#xcf;" horiz-adv-x="520" d="M41 1559q0 40 28 68t68 28t68 -28t28 -68q0 -38 -28 -65.5t-68 -27.5t-68 27.5t-28 65.5zM45 1393h418q-82 -49 -82 -181v-352q0 -70 43 -98q-15 -31 -64 -47q21 -34 21 -111v-555q0 -185 23.5 -273.5t95.5 -162.5q-53 13 -101.5 43t-88 68.5t-77 77.5t-83.5 76.5 t-93 58.5q29 20 42.5 69.5t13.5 102.5v501q0 74 -43 97q22 35 63 49q-20 32 -20 108v348q0 41 -16 97t-52 84zM289 1559q0 40 28 68t68 28t68 -28t28 -68q0 -38 -28 -65.5t-68 -27.5t-68 27.5t-28 65.5z" />
<glyph unicode="&#xd0;" horiz-adv-x="1218" d="M8 274q14 128 80 213.5t162 85.5q11 0 19.5 -2t12 -4.5t9.5 -7t8 -6.5q75 9 120.5 -53.5t24.5 -137.5q-26 34 -49.5 49t-54.5 15q-70 0 -120.5 -63.5t-47.5 -159.5q2 -68 17.5 -124.5t41 -96t59 -70.5t71.5 -47t78 -27t78 -9.5t73 5.5q78 13 131 44t95 90t65 156t34 236 t9 336q-1 162 -11.5 283t-26.5 191t-38.5 112t-43.5 56t-46 14q-6 0 -10 -3t-6.5 -9t-4 -11t-2 -14.5t-0.5 -14.5v-15v-11v-531l82 5v-107l-82 4v-452q0 -38 19.5 -78t60.5 -64q-99 -25 -225.5 -76.5t-190.5 -58.5q33 26 50.5 77t17.5 91v561q-44 0 -98 -4v107q3 0 98 -7 v439q0 108 -12 127q-68 -28 -125 -121t-54 -195q2 -36 21 -73t51 -58q-78 -35 -130 -17t-78 58t-25 86q2 91 42.5 165t104 122t145.5 80.5t165.5 46t166.5 12.5q108 -1 192.5 -39t139 -102t90 -156t50 -193.5t14.5 -220.5q0 -209 -46 -380t-128 -287t-193.5 -185.5 t-245.5 -85.5q-136 -16 -256.5 22.5t-198.5 112.5t-119 173.5t-30 201.5zM208 227q8 47 28 74q53 68 110 43q23 -9 31 -40.5t-17 -65.5q-21 32 -51.5 28t-46.5 -26q-23 -28 -27.5 -80t2 -95t17.5 -77q-32 62 -43 127t-3 112z" />
<glyph unicode="&#xd1;" horiz-adv-x="774" d="M0 -248q39 44 55.5 120.5t16.5 121.5v616q0 72 -43 97q7 17 26 31.5t37 17.5q-20 32 -20 108v342q0 123 -62 187h318q-39 -41 -31 -115q7 -55 32.5 -104t82.5 -130q160 -235 190 -423v342q0 55 0.5 93.5t4 97.5t9.5 101t18 95t28 90t41 75.5t56.5 61.5t75 38t95.5 15 q46 0 81 -28t27 -74q22 -85 -41 -113q-8 33 -34 53.5t-64 20.5q-51 0 -95.5 -37.5t-66.5 -110.5q-16 -56 -24.5 -126t-9.5 -117t-1 -135v-103q0 -69 46 -98q-15 -32 -66 -47q14 -20 17 -42.5t3 -68.5v-600q0 -31 13.5 -82.5t34.5 -75.5h-175q17 24 29 69.5t12 80.5 q0 45 -18 97t-55 112.5t-66 101.5t-78 107q-39 51 -77.5 116t-83 179.5t-64.5 232.5v-948q0 -109 47 -152q-32 -4 -104.5 -47t-116.5 -43zM188 1540q43 74 88.5 100t100.5 15q26 -5 79 -29.5t79 -30.5q42 -11 81 47l39 -22v4q-90 -139 -188 -119q-21 5 -70 30.5t-75 29.5 q-55 12 -95 -47zM725 1092q0 179 59 274q21 35 55 55t54 17q22 -3 34.5 -19t6.5 -37q-43 19 -82 -4.5t-66 -74.5q-17 -34 -29 -68t-16 -53t-9.5 -50.5t-6.5 -39.5z" />
<glyph unicode="&#xd2;" horiz-adv-x="1064" d="M6 606q15 34 66 49q-31 47 -31 142q6 90 25.5 174t59 164t93.5 139t133.5 95t175.5 36q92 0 170.5 -34.5t133.5 -92.5t95.5 -136.5t61.5 -165t27 -179.5q2 -28 -4.5 -71.5t-24.5 -70.5q51 -15 66 -49q-28 -11 -37 -153q-7 -87 -27 -175.5t-59 -182t-92 -165 t-133.5 -117.5t-176.5 -46q-82 0 -152.5 30.5t-120 84.5t-88.5 120.5t-63.5 146.5t-39 154t-21.5 150q-9 142 -37 153zM328 641q3 -5 6 -10.5t5 -9.5t4 -11t3 -11t2 -12.5t1.5 -12.5t1 -14.5t0.5 -14.5t0.5 -17t0.5 -18q0 -6 -0.5 -63t1 -109t5.5 -128t16 -137t30.5 -117.5 t50 -88t73.5 -31.5q37 0 66.5 26t48 66.5t31.5 98.5t19.5 113t10 119.5t3.5 108.5v89v53q0 5 0.5 18t0.5 17t0.5 14.5t1 14.5t1.5 12.5t2 12.5t3 11t4 11t5 9.5t6 10.5q-2 1 -12 5.5t-12.5 6t-10.5 6.5t-11.5 8.5t-8.5 9.5t-8 13q46 15 45 153v7q0 80 -7.5 156t-26 157.5 t-57.5 131t-94 48.5q-56 -1 -95 -50t-56.5 -131.5t-24 -156t-6.5 -155.5v-7q0 -33 1 -56.5t12 -56.5t32 -40q-7 -13 -18.5 -23t-18.5 -13.5t-26 -12.5zM367 1569q-15 31 2 61q19 26 55 24.5t76 -28.5q111 -94 217 -207h-47q-167 52 -246 92q-42 27 -57 58zM420 410 q2 36 25.5 60t62.5 24q158 0 158 -318q0 -68 -23 -152.5t-59 -140.5q37 92 47 244q6 111 -33 186.5t-92 75.5q-25 0 -44 -13.5t-24 -31.5q-18 18 -18 66zM485 305q0 31 41 31q39 0 61.5 -67.5t22.5 -127.5q0 -101 -28 -204q14 137 0 235q-8 58 -33.5 96t-63.5 37z" />
<glyph unicode="&#xd3;" horiz-adv-x="1064" d="M6 606q15 34 66 49q-31 47 -31 142q6 90 25.5 174t59 164t93.5 139t133.5 95t175.5 36q92 0 170.5 -34.5t133.5 -92.5t95.5 -136.5t61.5 -165t27 -179.5q2 -28 -4.5 -71.5t-24.5 -70.5q51 -15 66 -49q-28 -11 -37 -153q-7 -87 -27 -175.5t-59 -182t-92 -165 t-133.5 -117.5t-176.5 -46q-82 0 -152.5 30.5t-120 84.5t-88.5 120.5t-63.5 146.5t-39 154t-21.5 150q-9 142 -37 153zM328 641q3 -5 6 -10.5t5 -9.5t4 -11t3 -11t2 -12.5t1.5 -12.5t1 -14.5t0.5 -14.5t0.5 -17t0.5 -18q0 -6 -0.5 -63t1 -109t5.5 -128t16 -137t30.5 -117.5 t50 -88t73.5 -31.5q37 0 66.5 26t48 66.5t31.5 98.5t19.5 113t10 119.5t3.5 108.5v89v53q0 5 0.5 18t0.5 17t0.5 14.5t1 14.5t1.5 12.5t2 12.5t3 11t4 11t5 9.5t6 10.5q-2 1 -12 5.5t-12.5 6t-10.5 6.5t-11.5 8.5t-8.5 9.5t-8 13q46 15 45 153v7q0 80 -7.5 156t-26 157.5 t-57.5 131t-94 48.5q-56 -1 -95 -50t-56.5 -131.5t-24 -156t-6.5 -155.5v-7q0 -33 1 -56.5t12 -56.5t32 -40q-7 -13 -18.5 -23t-18.5 -13.5t-26 -12.5zM346 1438q102 114 217 207q40 27 76 28.5t55 -24.5q16 -30 2 -61t-53 -56q-32 -16 -68.5 -30.5t-56 -21.5t-66.5 -22.5 t-59 -19.5h-47zM420 410q2 36 25.5 60t62.5 24q158 0 158 -318q0 -68 -23 -152.5t-59 -140.5q37 92 47 244q6 111 -33 186.5t-92 75.5q-25 0 -44 -13.5t-24 -31.5q-18 18 -18 66zM485 305q0 31 41 31q39 0 61.5 -67.5t22.5 -127.5q0 -101 -28 -204q14 137 0 235 q-8 58 -33.5 96t-63.5 37z" />
<glyph unicode="&#xd4;" horiz-adv-x="1064" d="M6 606q15 34 66 49q-31 47 -31 142q6 90 25.5 174t59 164t93.5 139t133.5 95t175.5 36q92 0 170.5 -34.5t133.5 -92.5t95.5 -136.5t61.5 -165t27 -179.5q2 -28 -4.5 -71.5t-24.5 -70.5q51 -15 66 -49q-28 -11 -37 -153q-7 -87 -27 -175.5t-59 -182t-92 -165 t-133.5 -117.5t-176.5 -46q-82 0 -152.5 30.5t-120 84.5t-88.5 120.5t-63.5 146.5t-39 154t-21.5 150q-9 142 -37 153zM315 1452l166 213h101l168 -213l-70 -10l-148 119l-147 -119zM328 641q3 -5 6 -10.5t5 -9.5t4 -11t3 -11t2 -12.5t1.5 -12.5t1 -14.5t0.5 -14.5t0.5 -17 t0.5 -18q0 -6 -0.5 -63t1 -109t5.5 -128t16 -137t30.5 -117.5t50 -88t73.5 -31.5q37 0 66.5 26t48 66.5t31.5 98.5t19.5 113t10 119.5t3.5 108.5v89v53q0 5 0.5 18t0.5 17t0.5 14.5t1 14.5t1.5 12.5t2 12.5t3 11t4 11t5 9.5t6 10.5q-2 1 -12 5.5t-12.5 6t-10.5 6.5 t-11.5 8.5t-8.5 9.5t-8 13q46 15 45 153v7q0 80 -7.5 156t-26 157.5t-57.5 131t-94 48.5q-56 -1 -95 -50t-56.5 -131.5t-24 -156t-6.5 -155.5v-7q0 -33 1 -56.5t12 -56.5t32 -40q-7 -13 -18.5 -23t-18.5 -13.5t-26 -12.5zM420 410q2 36 25.5 60t62.5 24q158 0 158 -318 q0 -68 -23 -152.5t-59 -140.5q37 92 47 244q6 111 -33 186.5t-92 75.5q-25 0 -44 -13.5t-24 -31.5q-18 18 -18 66zM485 305q0 31 41 31q39 0 61.5 -67.5t22.5 -127.5q0 -101 -28 -204q14 137 0 235q-8 58 -33.5 96t-63.5 37z" />
<glyph unicode="&#xd5;" horiz-adv-x="1064" d="M6 606q15 34 66 49q-31 47 -31 142q6 90 25.5 174t59 164t93.5 139t133.5 95t175.5 36q92 0 170.5 -34.5t133.5 -92.5t95.5 -136.5t61.5 -165t27 -179.5q2 -28 -4.5 -71.5t-24.5 -70.5q51 -15 66 -49q-28 -11 -37 -153q-7 -87 -27 -175.5t-59 -182t-92 -165 t-133.5 -117.5t-176.5 -46q-82 0 -152.5 30.5t-120 84.5t-88.5 120.5t-63.5 146.5t-39 154t-21.5 150q-9 142 -37 153zM299 1505q79 137 190 115q25 -5 77.5 -29t78.5 -30q43 -11 82 47l39 -23v4q-87 -140 -188 -119q-21 5 -70 30.5t-74 29.5q-57 12 -94 -47zM328 641 q3 -5 6 -10.5t5 -9.5t4 -11t3 -11t2 -12.5t1.5 -12.5t1 -14.5t0.5 -14.5t0.5 -17t0.5 -18q0 -6 -0.5 -63t1 -109t5.5 -128t16 -137t30.5 -117.5t50 -88t73.5 -31.5q37 0 66.5 26t48 66.5t31.5 98.5t19.5 113t10 119.5t3.5 108.5v89v53q0 5 0.5 18t0.5 17t0.5 14.5t1 14.5 t1.5 12.5t2 12.5t3 11t4 11t5 9.5t6 10.5q-2 1 -12 5.5t-12.5 6t-10.5 6.5t-11.5 8.5t-8.5 9.5t-8 13q46 15 45 153v7q0 80 -7.5 156t-26 157.5t-57.5 131t-94 48.5q-56 -1 -95 -50t-56.5 -131.5t-24 -156t-6.5 -155.5v-7q0 -33 1 -56.5t12 -56.5t32 -40q-7 -13 -18.5 -23 t-18.5 -13.5t-26 -12.5zM420 410q2 36 25.5 60t62.5 24q158 0 158 -318q0 -68 -23 -152.5t-59 -140.5q37 92 47 244q6 111 -33 186.5t-92 75.5q-25 0 -44 -13.5t-24 -31.5q-18 18 -18 66zM485 305q0 31 41 31q39 0 61.5 -67.5t22.5 -127.5q0 -101 -28 -204q14 137 0 235 q-8 58 -33.5 96t-63.5 37z" />
<glyph unicode="&#xd6;" horiz-adv-x="1064" d="M6 606q15 34 66 49q-31 47 -31 142q6 90 25.5 174t59 164t93.5 139t133.5 95t175.5 36q92 0 170.5 -34.5t133.5 -92.5t95.5 -136.5t61.5 -165t27 -179.5q2 -28 -4.5 -71.5t-24.5 -70.5q51 -15 66 -49q-28 -11 -37 -153q-7 -87 -27 -175.5t-59 -182t-92 -165 t-133.5 -117.5t-176.5 -46q-82 0 -152.5 30.5t-120 84.5t-88.5 120.5t-63.5 146.5t-39 154t-21.5 150q-9 142 -37 153zM313 1561q0 41 28 68.5t69 27.5q39 0 67.5 -27.5t28.5 -68.5q0 -37 -29 -65t-67 -28q-41 0 -69 28t-28 65zM328 641q3 -5 6 -10.5t5 -9.5t4 -11t3 -11 t2 -12.5t1.5 -12.5t1 -14.5t0.5 -14.5t0.5 -17t0.5 -18q0 -6 -0.5 -63t1 -109t5.5 -128t16 -137t30.5 -117.5t50 -88t73.5 -31.5q37 0 66.5 26t48 66.5t31.5 98.5t19.5 113t10 119.5t3.5 108.5v89v53q0 5 0.5 18t0.5 17t0.5 14.5t1 14.5t1.5 12.5t2 12.5t3 11t4 11t5 9.5 t6 10.5q-2 1 -12 5.5t-12.5 6t-10.5 6.5t-11.5 8.5t-8.5 9.5t-8 13q46 15 45 153v7q0 80 -7.5 156t-26 157.5t-57.5 131t-94 48.5q-56 -1 -95 -50t-56.5 -131.5t-24 -156t-6.5 -155.5v-7q0 -33 1 -56.5t12 -56.5t32 -40q-7 -13 -18.5 -23t-18.5 -13.5t-26 -12.5zM420 410 q2 36 25.5 60t62.5 24q158 0 158 -318q0 -68 -23 -152.5t-59 -140.5q37 92 47 244q6 111 -33 186.5t-92 75.5q-25 0 -44 -13.5t-24 -31.5q-18 18 -18 66zM485 305q0 31 41 31q39 0 61.5 -67.5t22.5 -127.5q0 -101 -28 -204q14 137 0 235q-8 58 -33.5 96t-63.5 37zM561 1561 q0 41 27.5 68.5t66.5 27.5q41 0 69 -27.5t28 -68.5q0 -37 -28 -65t-69 -28q-38 0 -66 28t-28 65z" />
<glyph unicode="&#xd8;" horiz-adv-x="1064" d="M6 606q22 36 66 49q-31 47 -31 142q6 90 25.5 174t59 164t93.5 139t133.5 95t175.5 36q191 0 324 -150l63 109h111l-115 -195q93 -165 105 -372q2 -28 -4.5 -71.5t-24.5 -70.5q44 -13 66 -49q-28 -11 -37 -153q-7 -87 -27 -175.5t-59 -182t-92 -165t-133.5 -117.5 t-176.5 -46q-198 0 -327 192l-82 -139h-109l137 233q-87 187 -104 400q-9 142 -37 153zM328 641q3 -5 6 -10.5t5 -9.5t4 -11t3 -11t2 -12.5t1.5 -12.5t1 -14.5t0.5 -14.5t0.5 -17t0.5 -18v-109l350 600q-5 69 -15 124.5t-29 108t-52 81.5t-78 28q-46 -1 -79.5 -34t-51.5 -83 t-29 -117.5t-15 -126.5t-7 -121v-11v-7q0 -33 1 -56.5t12 -56.5t32 -40q-5 -6 -9.5 -11t-7.5 -8.5t-7.5 -7.5t-6.5 -5.5t-8 -4.5l-7 -3.5t-8.5 -4t-8.5 -4.5zM356 225q5 -76 15.5 -140t30 -123t51.5 -92.5t75 -33.5q37 0 66.5 26t48 66.5t31.5 98.5t19.5 113t10 119.5 t3.5 108.5v89v53q0 5 0.5 18t0.5 17t0.5 14.5t1 14.5t1.5 12.5t2 12.5t3 11t4 11t5 9.5t6 10.5q-3 1 -10 4.5t-9.5 5t-8.5 4.5t-9 5.5t-7.5 7t-9 10t-9.5 12.5q45 15 45 139z" />
<glyph unicode="&#xd9;" horiz-adv-x="776" d="M-2 1393h418q-82 -49 -82 -181v-1251q0 -50 45.5 -84.5t83.5 -34.5q48 2 95.5 34t47.5 85v1012q0 339 82 498t244 159q47 0 84 -29.5t24 -72.5q14 -30 2.5 -66.5t-41.5 -46.5q-3 30 -28 53t-64 23q-51 0 -89 -29.5t-58.5 -76t-34.5 -105t-16 -117t-4.5 -111.5t0.5 -89 v-103q0 -70 43 -98q-12 -30 -64 -47q21 -34 21 -111v-514q0 -81 20 -137q-28 -79 -123 -135t-209 -56q-126 1 -218 57.5t-132 133.5q21 53 21 137v520q0 74 -43 97q20 35 65 49q-14 20 -18 43t-4 65v348q0 41 -16 97t-52 84zM240 1584.5q-15 32.5 2 60.5q19 26 55 25t76 -28 q128 -108 217 -208h-47q-18 6 -60 19.5t-63.5 21t-56 21.5t-66.5 30q-42 26 -57 58.5zM729 1092q1 57 9.5 112.5t26.5 110.5t53 89t81 34q23 0 34 -19t5 -43q-15 13 -39 13q-39 0 -72 -33.5t-52.5 -83.5t-31 -96.5t-14.5 -83.5z" />
<glyph unicode="&#xda;" horiz-adv-x="776" d="M-2 1393h418q-82 -49 -82 -181v-1251q0 -50 45.5 -84.5t83.5 -34.5q48 2 95.5 34t47.5 85v1012q0 339 82 498t244 159q47 0 84 -29.5t24 -72.5q14 -30 2.5 -66.5t-41.5 -46.5q-3 30 -28 53t-64 23q-51 0 -89 -29.5t-58.5 -76t-34.5 -105t-16 -117t-4.5 -111.5t0.5 -89 v-103q0 -70 43 -98q-12 -30 -64 -47q21 -34 21 -111v-514q0 -81 20 -137q-28 -79 -123 -135t-209 -56q-126 1 -218 57.5t-132 133.5q21 53 21 137v520q0 74 -43 97q20 35 65 49q-14 20 -18 43t-4 65v348q0 41 -16 97t-52 84zM238 1438q99 111 215 207q40 27 77 28.5 t56 -24.5q16 -30 1.5 -61t-55.5 -56q-32 -16 -67 -30.5t-56.5 -22t-64 -21.5t-59.5 -20h-47zM729 1092q1 57 9.5 112.5t26.5 110.5t53 89t81 34q23 0 34 -19t5 -43q-15 13 -39 13q-39 0 -72 -33.5t-52.5 -83.5t-31 -96.5t-14.5 -83.5z" />
<glyph unicode="&#xdb;" horiz-adv-x="776" d="M-2 1393h418q-82 -49 -82 -181v-1251q0 -50 45.5 -84.5t83.5 -34.5q48 2 95.5 34t47.5 85v1012q0 339 82 498t244 159q47 0 84 -29.5t24 -72.5q14 -30 2.5 -66.5t-41.5 -46.5q-3 30 -28 53t-64 23q-51 0 -89 -29.5t-58.5 -76t-34.5 -105t-16 -117t-4.5 -111.5t0.5 -89 v-103q0 -70 43 -98q-12 -30 -64 -47q21 -34 21 -111v-514q0 -81 20 -137q-28 -79 -123 -135t-209 -56q-126 1 -218 57.5t-132 133.5q21 53 21 137v520q0 74 -43 97q20 35 65 49q-14 20 -18 43t-4 65v348q0 41 -16 97t-52 84zM188 1468l166 213h101l168 -213l-70 -10 l-147 121l-148 -121zM729 1092q1 57 9.5 112.5t26.5 110.5t53 89t81 34q23 0 34 -19t5 -43q-15 13 -39 13q-39 0 -72 -33.5t-52.5 -83.5t-31 -96.5t-14.5 -83.5z" />
<glyph unicode="&#xdc;" horiz-adv-x="776" d="M-2 1393h418q-82 -49 -82 -181v-1251q0 -50 45.5 -84.5t83.5 -34.5q48 2 95.5 34t47.5 85v1012q0 339 82 498t244 159q47 0 84 -29.5t24 -72.5q14 -30 2.5 -66.5t-41.5 -46.5q-3 30 -28 53t-64 23q-51 0 -89 -29.5t-58.5 -76t-34.5 -105t-16 -117t-4.5 -111.5t0.5 -89 v-103q0 -70 43 -98q-12 -30 -64 -47q21 -34 21 -111v-514q0 -81 20 -137q-28 -79 -123 -135t-209 -56q-126 1 -218 57.5t-132 133.5q21 53 21 137v520q0 74 -43 97q20 35 65 49q-14 20 -18 43t-4 65v348q0 41 -16 97t-52 84zM203 1561q0 41 28 68.5t68 27.5t68 -27.5 t28 -68.5q0 -37 -28.5 -65t-67.5 -28t-67.5 28t-28.5 65zM451 1561q0 41 28 68.5t68 27.5t68 -27.5t28 -68.5q0 -37 -28.5 -65t-67.5 -28t-67.5 28t-28.5 65zM729 1092q1 57 9.5 112.5t26.5 110.5t53 89t81 34q23 0 34 -19t5 -43q-15 13 -39 13q-39 0 -72 -33.5t-52.5 -83.5 t-31 -96.5t-14.5 -83.5z" />
<glyph unicode="&#xdd;" horiz-adv-x="692" d="M-82 1393h432q-19 -11 -32 -28t-19.5 -31t-10 -36.5t-4 -32.5t-0.5 -31l1 -22l116 -536q22 89 46 201.5t39.5 186t36 158.5t42 141t50.5 109t68 87t89 53q54 22 107.5 20t83.5 -28q14 -14 19.5 -35.5t-1.5 -40.5q25 -84 -39 -113q-11 35 -32 54.5t-68 19.5 q-35 0 -62.5 -17.5t-48 -45.5t-41.5 -82.5t-36 -108t-38 -143.5q-43 -176 -53 -230q-9 -75 15 -110q-8 -12 -30 -25t-40 -18q3 -4 4 -10.5t0.5 -15.5t-1.5 -17.5t-3.5 -20t-4.5 -18.5t-5 -18t-4 -15l-23 -82v-463q0 -185 23 -273.5t94 -162.5q-52 13 -100.5 43t-87.5 68.5 t-77 77.5t-84.5 76.5t-93.5 58.5q31 20 44.5 69t13.5 103v403l-23 98q-7 27 -32 54t-54 43q12 33 47 51q-6 7 -10.5 14.5t-7.5 13t-7 18t-5.5 17t-6.5 21.5t-6 22l-92 348q-31 137 -88 181zM195 1446q142 152 217 207q39 28 76 29t55 -27q19 -26 4 -60t-55 -57 q-32 -17 -67.5 -32t-56.5 -22t-65.5 -20t-60.5 -18h-47zM653 1092q69 344 185 344q26 0 39.5 -21.5t7.5 -44.5q-12 10 -35 10q-32 0 -66 -34.5t-60.5 -87t-43.5 -93.5t-27 -73z" />
<glyph unicode="&#xde;" horiz-adv-x="759" d="M49 2q10 22 18.5 64t8.5 65v1012q0 21 -8.5 63t-18.5 66h264v-268q63 57 144 57q269 0 272 -438q1 -115 -27 -213t-91.5 -165.5t-153.5 -68.5q-64 0 -144 55v-229h-264zM313 305q18 -24 45 -24q47 -2 79.5 93t31.5 249q-2 99 -15.5 175.5t-38.5 119.5t-57 40 q-25 0 -45 -20v-633z" />
<glyph unicode="&#xe0;" d="M0 0q14 22 29 60.5t20 62.5l164 971q3 19 1 61t-9 64h270q-5 -21 -5 -62.5t3 -66.5l184 -961q22 -79 54 -129h-310q7 22 7 63.5t-5 65.5l-20 109q-113 -52 -217 -2l-16 -113q-4 -20 -2.5 -60.5t8.5 -62.5h-156zM168 1479.5q-15 32.5 2 60.5q19 26 55.5 25t75.5 -27 q124 -105 217 -209h-47q-18 6 -60 19.5t-63.5 21t-56 21.5t-66.5 30q-42 26 -57 58.5zM176 307q42 -16 74 -19.5t53.5 1t63.5 18.5l-107 563z" />
<glyph unicode="&#xe1;" d="M0 0q14 22 29 60.5t20 62.5l164 971q3 19 1 61t-9 64h270q-5 -21 -5 -62.5t3 -66.5l184 -961q22 -79 54 -129h-310q7 22 7 63.5t-5 65.5l-20 109q-113 -52 -217 -2l-16 -113q-4 -20 -2.5 -60.5t8.5 -62.5h-156zM139 1333q99 111 215 207q42 27 78 28.5t55 -24.5 q16 -30 2 -61t-53 -56q-32 -16 -68.5 -30.5t-56 -21.5t-66.5 -22.5t-59 -19.5h-47zM176 307q42 -16 74 -19.5t53.5 1t63.5 18.5l-107 563z" />
<glyph unicode="&#xe2;" d="M0 0q14 22 29 60.5t20 62.5l164 971q3 19 1 61t-9 64h270q-5 -21 -5 -62.5t3 -66.5l184 -961q22 -79 54 -129h-310q7 22 7 63.5t-5 65.5l-20 109q-113 -52 -217 -2l-16 -113q-4 -20 -2.5 -60.5t8.5 -62.5h-156zM113 1364l168 213h98l170 -213l-70 -10l-147 121l-150 -121 zM176 307q42 -16 74 -19.5t53.5 1t63.5 18.5l-107 563z" />
<glyph unicode="&#xe3;" d="M0 0q14 22 29 60.5t20 62.5l164 971q3 19 1 61t-9 64h270q-5 -21 -5 -62.5t3 -66.5l184 -961q22 -79 54 -129h-310q7 22 7 63.5t-5 65.5l-20 109q-113 -52 -217 -2l-16 -113q-4 -20 -2.5 -60.5t8.5 -62.5h-156zM96 1454q81 138 189 113q27 -4 79.5 -29t77.5 -31 q44 -9 82 47l39 -22v6q-88 -140 -188 -119q-22 5 -71.5 30t-74.5 30q-53 11 -94 -47zM176 307q42 -16 74 -19.5t53.5 1t63.5 18.5l-107 563z" />
<glyph unicode="&#xe4;" d="M0 0q14 22 29 60.5t20 62.5l164 971q3 19 1 61t-9 64h270q-5 -21 -5 -62.5t3 -66.5l184 -961q22 -79 54 -129h-310q7 22 7 63.5t-5 65.5l-20 109q-113 -52 -217 -2l-16 -113q-4 -20 -2.5 -60.5t8.5 -62.5h-156zM119 1475q0 40 27.5 68t68.5 28q38 0 66 -28t28 -68 q0 -38 -28 -65.5t-66 -27.5q-41 0 -68.5 27t-27.5 66zM176 307q42 -16 74 -19.5t53.5 1t63.5 18.5l-107 563zM367 1475q0 40 28 68t66 28q41 0 68.5 -28t27.5 -68q0 -39 -27.5 -66t-68.5 -27q-38 0 -66 27.5t-28 65.5z" />
<glyph unicode="&#xe5;" d="M0 0q14 22 29 60.5t20 62.5l164 971q3 19 1 61t-9 64h270q-5 -21 -5 -62.5t3 -66.5l184 -961q22 -79 54 -129h-310q7 22 7 63.5t-5 65.5l-20 109q-113 -52 -217 -2l-16 -113q-4 -20 -2.5 -60.5t8.5 -62.5h-156zM170 1448q0 62 46.5 104.5t113.5 42.5q66 0 112.5 -43 t46.5 -104q0 -63 -46.5 -105.5t-112.5 -42.5q-69 0 -114.5 42.5t-45.5 105.5zM176 307q42 -16 74 -19.5t53.5 1t63.5 18.5l-107 563zM238 1448q0 -37 25.5 -61.5t66.5 -24.5q36 0 63 25t27 61q0 35 -27 60.5t-63 25.5q-40 0 -66 -25t-26 -61z" />
<glyph unicode="&#xe6;" horiz-adv-x="1001" d="M20 -2q19 22 40.5 60t29.5 61l348 973q12 33 15 73q-2 7 -5.5 20t-6 22.5t-5.5 15.5h522l7 -109q-22 11 -63 19t-66 8h-113q-6 -12 -6 -47v-398h59q87 0 129 19v-121q-39 20 -129 20h-59v-485q0 -11 8 -51q101 0 121 2q84 6 129 29l-6 -109h-533q23 55 27 119l-2 8v106 q-69 -24 -122.5 -24.5t-113.5 20.5l-39 -108q-8 -23 -13.5 -62t-2.5 -61h-150zM250 305q47 -23 110 -21.5t101 23.5v578z" />
<glyph unicode="&#xe7;" horiz-adv-x="698" d="M35 608q0 100 12 186t44.5 170t84 143t135.5 95.5t193 36.5t192 -49l-49 -113q-17 30 -59.5 60t-81.5 30q-27 0 -49.5 -8t-39.5 -25.5t-30.5 -36t-23 -51t-16.5 -57.5t-11.5 -67.5t-7 -70t-3.5 -76.5t-1 -75v-76v-16v-44q-1 -33 -0.5 -68l1 -70t3.5 -70t6.5 -68t11 -63.5 t16.5 -57t23 -48.5t31 -37.5t40 -24t50 -8.5q39 0 81.5 29t59.5 59l49 -110q-81 -52 -192 -52q-10 0 -68 5q-30 -20 -28 -56q1 -22 27.5 -50t58.5 -51.5t59.5 -56.5t28.5 -65q1 -76 -49 -116t-144 -38q-59 5 -100 29l22 82q9 -18 30.5 -32.5t39.5 -14.5q46 3 59 22.5 t13 53.5q-2 27 -17 47.5t-36 35t-41.5 30.5t-34.5 40.5t-15 57.5q0 26 64 94q-338 82 -338 616z" />
<glyph unicode="&#xe8;" horiz-adv-x="622" d="M49 0q10 22 18.5 64t8.5 65v961q0 23 -8.5 65t-18.5 64h524l5 -99q-22 11 -62.5 19t-66.5 8h-113q-4 -9 -4 -47v-404h57q87 0 129 19v-117q-44 20 -129 20h-57v-495q0 -40 4 -51q102 0 123 2q84 6 129 26l-6 -100h-533zM100.5 1480q-15.5 32 1.5 60q19 26 55 25t76 -27 q128 -108 218 -209h-48q-17 6 -59.5 19.5t-63.5 21t-55.5 21.5t-66.5 30q-42 27 -57.5 59z" />
<glyph unicode="&#xe9;" horiz-adv-x="622" d="M49 0q10 22 18.5 64t8.5 65v961q0 23 -8.5 65t-18.5 64h524l5 -99q-22 11 -62.5 19t-66.5 8h-113q-4 -9 -4 -47v-404h57q87 0 129 19v-117q-44 20 -129 20h-57v-495q0 -40 4 -51q102 0 123 2q84 6 129 26l-6 -100h-533zM102 1333q102 114 217 207q40 27 76.5 28.5 t55.5 -24.5q16 -30 1.5 -61t-53.5 -56q-33 -16 -69.5 -31t-54 -21t-67 -22.5l-58.5 -19.5h-48z" />
<glyph unicode="&#xea;" horiz-adv-x="622" d="M49 0q10 22 18.5 64t8.5 65v961q0 23 -8.5 65t-18.5 64h524l5 -99q-22 11 -62.5 19t-66.5 8h-113q-4 -9 -4 -47v-404h57q87 0 129 19v-117q-44 20 -129 20h-57v-495q0 -40 4 -51q102 0 123 2q84 6 129 26l-6 -100h-533zM88 1364l166 213h100l168 -213l-69 -10l-148 121 l-147 -121z" />
<glyph unicode="&#xeb;" horiz-adv-x="622" d="M49 0q10 22 18.5 64t8.5 65v961q0 23 -8.5 65t-18.5 64h524l5 -99q-22 11 -62.5 19t-66.5 8h-113q-4 -9 -4 -47v-404h57q87 0 129 19v-117q-44 20 -129 20h-57v-495q0 -40 4 -51q102 0 123 2q84 6 129 26l-6 -100h-533zM61 1475q0 40 28 68t69 28q38 0 66 -28t28 -68 q0 -38 -28 -65.5t-66 -27.5q-41 0 -69 27t-28 66zM307 1475q0 39 28.5 67.5t67.5 28.5q41 0 69 -28t28 -68q0 -39 -28 -66t-69 -27q-39 0 -67.5 27.5t-28.5 65.5z" />
<glyph unicode="&#xec;" horiz-adv-x="405" d="M29 1479.5q-15 32.5 2 60.5q19 26 55.5 25t75.5 -27q124 -105 217 -209h-47q-18 6 -60 19.5t-63.5 21t-56 21.5t-66.5 30q-42 26 -57 58.5zM49 0q10 23 18.5 64t8.5 65v961q0 23 -8.5 65t-18.5 64h307q-10 -22 -17 -63.5t-7 -65.5v-961q0 -26 7 -66.5t17 -62.5h-307z" />
<glyph unicode="&#xed;" horiz-adv-x="405" d="M10 1333q102 114 217 207q40 27 76 28.5t55 -24.5q16 -30 2 -61t-53 -56q-32 -16 -68.5 -30.5t-56 -21.5t-66.5 -22.5t-59 -19.5h-47zM49 0q10 23 18.5 64t8.5 65v961q0 23 -8.5 65t-18.5 64h307q-10 -22 -17 -63.5t-7 -65.5v-961q0 -26 7 -66.5t17 -62.5h-307z" />
<glyph unicode="&#xee;" horiz-adv-x="405" d="M-20 1364l165 213h101l168 -213l-70 -10l-147 121l-148 -121zM49 0q10 23 18.5 64t8.5 65v961q0 23 -8.5 65t-18.5 64h307q-10 -22 -17 -63.5t-7 -65.5v-961q0 -26 7 -66.5t17 -62.5h-307z" />
<glyph unicode="&#xef;" horiz-adv-x="405" d="M-25 1475q0 40 28 68t69 28q39 0 67.5 -28.5t28.5 -67.5q0 -38 -28.5 -65.5t-67.5 -27.5q-41 0 -69 27t-28 66zM49 0q10 23 18.5 64t8.5 65v961q0 23 -8.5 65t-18.5 64h307q-10 -22 -17 -63.5t-7 -65.5v-961q0 -26 7 -66.5t17 -62.5h-307zM223 1475q0 40 28 68t68 28 t67.5 -28t27.5 -68q0 -38 -27.5 -65.5t-67.5 -27.5t-68 27.5t-28 65.5z" />
<glyph unicode="&#xf0;" horiz-adv-x="798" d="M-14 553v109l90 -5v433q0 23 -8.5 65t-18.5 64h268q100 0 179 -33.5t131 -90.5t86.5 -136t49.5 -166t15 -185q0 -90 -14 -172.5t-46 -159t-79.5 -134t-120 -96t-162.5 -46.5h-307q10 22 18.5 64t8.5 65v428zM332 126q0 -6 0.5 -16t2 -17.5t3.5 -14.5t6 -11t10 -4 q68 -2 109 132.5t41 414.5q0 140 -12 247t-33 170.5t-47 95.5t-56 32q-24 0 -24 -82v-414q34 0 74 3v-109q-28 0 -74 4v-410v-7v-14z" />
<glyph unicode="&#xf1;" horiz-adv-x="774" d="M49 0q10 23 18.5 62t8.5 61v973q0 22 -8.5 61t-18.5 62h273q-8 -22 -15 -56q-3 -57 26.5 -119t90.5 -143q8 -11 32 -42t34 -44.5t29 -43t30.5 -52t25.5 -55.5t25 -68v500q0 23 -7.5 62t-17.5 61h150q-10 -22 -17.5 -61t-7.5 -62v-973q0 -23 7.5 -62t17.5 -61h-139 q25 59 20 111q1 33 -89.5 151.5t-182.5 212.5q-54 57 -102.5 154t-55.5 166v-672q0 -24 8 -62.5t19 -60.5h-154zM162 1454q81 138 190 113q25 -4 78 -29t78 -31q44 -9 82 47l39 -22v6q-86 -140 -189 -119q-22 5 -70.5 30t-72.5 30q-56 11 -94 -47z" />
<glyph unicode="&#xf2;" horiz-adv-x="849" d="M27 612q-1 91 6.5 168t25 149.5t48 128t74 97.5t106 64t141.5 22q93 0 163.5 -32t115 -86.5t71.5 -136t37 -172t8 -202.5q-1 -111 -14 -203t-42 -174t-73.5 -138t-113 -88.5t-156.5 -31.5q-393 3 -397 635zM248 1480q-15 32 2 60q18 26 54 25t75 -27q123 -101 219 -209 h-47q-16 5 -61 19.5t-65 21.5t-55 21t-67 30q-40 27 -55 59zM319 612q0 -141 5 -241t16.5 -174.5t32.5 -110.5t51 -35q61 1 84.5 130.5t23.5 430.5q0 141 -5 240t-16.5 173.5t-32 110.5t-50.5 35q-63 -1 -86 -129t-23 -430z" />
<glyph unicode="&#xf3;" horiz-adv-x="849" d="M27 612q-1 91 6.5 168t25 149.5t48 128t74 97.5t106 64t141.5 22q93 0 163.5 -32t115 -86.5t71.5 -136t37 -172t8 -202.5q-1 -111 -14 -203t-42 -174t-73.5 -138t-113 -88.5t-156.5 -31.5q-393 3 -397 635zM238 1333q102 114 217 207q40 27 76.5 28.5t54.5 -24.5 q17 -30 3 -60.5t-54 -56.5q-32 -16 -67.5 -30.5t-56.5 -22t-66 -22t-60 -19.5h-47zM319 612q0 -141 5 -241t16.5 -174.5t32.5 -110.5t51 -35q61 1 84.5 130.5t23.5 430.5q0 141 -5 240t-16.5 173.5t-32 110.5t-50.5 35q-63 -1 -86 -129t-23 -430z" />
<glyph unicode="&#xf4;" horiz-adv-x="849" d="M27 612q-1 91 6.5 168t25 149.5t48 128t74 97.5t106 64t141.5 22q93 0 163.5 -32t115 -86.5t71.5 -136t37 -172t8 -202.5q-1 -111 -14 -203t-42 -174t-73.5 -138t-113 -88.5t-156.5 -31.5q-393 3 -397 635zM221 1364l168 213h98l168 -213l-69 -10l-148 121l-147 -121z M319 612q0 -141 5 -241t16.5 -174.5t32.5 -110.5t51 -35q61 1 84.5 130.5t23.5 430.5q0 141 -5 240t-16.5 173.5t-32 110.5t-50.5 35q-63 -1 -86 -129t-23 -430z" />
<glyph unicode="&#xf5;" horiz-adv-x="849" d="M27 612q-1 91 6.5 168t25 149.5t48 128t74 97.5t106 64t141.5 22q93 0 163.5 -32t115 -86.5t71.5 -136t37 -172t8 -202.5q-1 -111 -14 -203t-42 -174t-73.5 -138t-113 -88.5t-156.5 -31.5q-393 3 -397 635zM190 1454q81 138 189 113q26 -4 79 -29t79 -31q43 -9 81 47 l37 -22v6q-85 -140 -186 -119q-22 5 -71 30t-74 30q-54 11 -95 -47zM319 612q0 -141 5 -241t16.5 -174.5t32.5 -110.5t51 -35q61 1 84.5 130.5t23.5 430.5q0 141 -5 240t-16.5 173.5t-32 110.5t-50.5 35q-63 -1 -86 -129t-23 -430z" />
<glyph unicode="&#xf6;" horiz-adv-x="849" d="M27 612q-1 91 6.5 168t25 149.5t48 128t74 97.5t106 64t141.5 22q93 0 163.5 -32t115 -86.5t71.5 -136t37 -172t8 -202.5q-1 -111 -14 -203t-42 -174t-73.5 -138t-113 -88.5t-156.5 -31.5q-393 3 -397 635zM207 1475q0 40 28 68t68 28q39 0 67.5 -28.5t28.5 -67.5 q0 -38 -28.5 -65.5t-67.5 -27.5q-40 0 -68 27.5t-28 65.5zM319 612q0 -141 5 -241t16.5 -174.5t32.5 -110.5t51 -35q61 1 84.5 130.5t23.5 430.5q0 141 -5 240t-16.5 173.5t-32 110.5t-50.5 35q-63 -1 -86 -129t-23 -430zM455 1475q0 40 28 68t68 28t67 -28t27 -68 q0 -39 -27.5 -66t-66.5 -27q-40 0 -68 27.5t-28 65.5z" />
<glyph unicode="&#xf8;" horiz-adv-x="849" d="M-47 -92l156 264q-82 160 -82 440q-1 91 6.5 168t25 149.5t48 128t74 97.5t106 64t141.5 22q159 0 252 -90l115 192h102l-160 -268q89 -149 86 -463q-1 -111 -14 -203t-42 -174t-73.5 -138t-113 -88.5t-156.5 -31.5q-169 3 -262 113l-109 -182h-100zM319 535l207 350 q-18 286 -98 286q-63 -1 -86 -129t-23 -430v-77zM324 369q15 -321 100 -318q61 1 84.5 130.5t23.5 430.5q0 76 -2 111z" />
<glyph unicode="&#xf9;" horiz-adv-x="811" d="M63 1219h306q-10 -22 -18.5 -64t-8.5 -65v-922q0 -35 26 -58t52.5 -30.5t48.5 -7.5q40 0 81.5 22t45.5 74v922q0 25 -8 66t-19 63h156q-11 -22 -19 -63t-8 -66v-811q0 -79 21 -138q-30 -74 -117 -117.5t-201 -43.5q-240 0 -333 161q20 45 20 138v811q0 24 -7.5 65.5 t-17.5 63.5zM246 1480q-15 32 2 60q19 26 54.5 25t74.5 -27q123 -101 219 -209h-47q-16 5 -61 19.5t-65 21.5t-55 21t-67 30q-40 27 -55 59z" />
<glyph unicode="&#xfa;" horiz-adv-x="811" d="M63 1219h306q-10 -22 -18.5 -64t-8.5 -65v-922q0 -35 26 -58t52.5 -30.5t48.5 -7.5q40 0 81.5 22t45.5 74v922q0 25 -8 66t-19 63h156q-11 -22 -19 -63t-8 -66v-811q0 -79 21 -138q-30 -74 -117 -117.5t-201 -43.5q-240 0 -333 161q20 45 20 138v811q0 24 -7.5 65.5 t-17.5 63.5zM229 1333q102 114 217 207q40 27 76.5 28.5t55.5 -24.5q16 -30 1.5 -61t-53.5 -56q-32 -16 -67.5 -30.5t-56.5 -22t-66 -22t-60 -19.5h-47z" />
<glyph unicode="&#xfb;" horiz-adv-x="811" d="M63 1219h306q-10 -22 -18.5 -64t-8.5 -65v-922q0 -35 26 -58t52.5 -30.5t48.5 -7.5q40 0 81.5 22t45.5 74v922q0 25 -8 66t-19 63h156q-11 -22 -19 -63t-8 -66v-811q0 -79 21 -138q-30 -74 -117 -117.5t-201 -43.5q-240 0 -333 161q20 45 20 138v811q0 24 -7.5 65.5 t-17.5 63.5zM199 1364l168 213h98l168 -213l-70 -10l-147 121l-148 -121z" />
<glyph unicode="&#xfc;" horiz-adv-x="811" d="M63 1219h306q-10 -22 -18.5 -64t-8.5 -65v-922q0 -35 26 -58t52.5 -30.5t48.5 -7.5q40 0 81.5 22t45.5 74v922q0 25 -8 66t-19 63h156q-11 -22 -19 -63t-8 -66v-811q0 -79 21 -138q-30 -74 -117 -117.5t-201 -43.5q-240 0 -333 161q20 45 20 138v811q0 24 -7.5 65.5 t-17.5 63.5zM197 1475q0 40 27.5 68t68.5 28q39 0 67.5 -28.5t28.5 -67.5q0 -38 -28.5 -65.5t-67.5 -27.5q-41 0 -68.5 27t-27.5 66zM444 1475q0 39 28 67.5t67 28.5q41 0 68.5 -28t27.5 -68q0 -39 -27.5 -66t-68.5 -27q-38 0 -66.5 27.5t-28.5 65.5z" />
<glyph unicode="&#xfd;" horiz-adv-x="716" d="M10 1219h301q-4 -29 17 -129l88 -394l116 396q8 22 10.5 63t-1.5 64h155q-28 -33 -61 -127l-164 -545v-418q0 -25 7.5 -66t17.5 -63h-308q10 23 18.5 64t8.5 65v418l-141 543q-7 26 -26.5 67t-37.5 62zM172 1333q102 114 217 207q40 27 76 28.5t55 -24.5q16 -30 2 -61 t-53 -56q-32 -16 -68.5 -30.5t-56 -21.5t-66.5 -22.5t-59 -19.5h-47z" />
<glyph unicode="&#xfe;" horiz-adv-x="755" d="M49 -305q10 24 18.5 66t8.5 63v1214q0 21 -8.5 63t-18.5 66h264v-348q64 58 144 58q269 0 272 -439q1 -114 -27 -212.5t-91.5 -165.5t-153.5 -68q-68 0 -144 55v-352h-264zM313 121q19 -25 45 -25q47 -2 79.5 93t31.5 249q-2 98 -15.5 174.5t-38.5 120.5t-57 41 q-31 -6 -45 -20v-633z" />
<glyph unicode="&#xff;" horiz-adv-x="716" d="M10 1219h301q-4 -29 17 -129l88 -394l116 396q8 22 10.5 63t-1.5 64h155q-28 -33 -61 -127l-164 -545v-418q0 -25 7.5 -66t17.5 -63h-308q10 23 18.5 64t8.5 65v418l-141 543q-7 26 -26.5 67t-37.5 62zM158 1475q0 40 27 68t67 28t68 -28t28 -68q0 -38 -28 -65.5 t-68 -27.5t-67 27t-27 66zM403 1475q0 40 28.5 68t68.5 28t68 -28t28 -68q0 -38 -28 -65.5t-68 -27.5t-68.5 27.5t-28.5 65.5z" />
<glyph unicode="&#x152;" horiz-adv-x="1449" d="M4 637q24 40 66 49q-18 27 -24.5 70t-4.5 73q5 89 24.5 173t58.5 163.5t93.5 139t134.5 95.5t176 36q107 0 183 -43h293h48.5h45.5t37.5 -0.5t36.5 -1.5t28.5 -2.5t27.5 -4t21 -6.5q24 6 56 11.5t53 7.5l20 2q-71 -95 -90 -249.5t19 -295.5q-53 0 -93 66t-34 124 q-72 8 -72 60q39 -6 68 24t26 74q-3 57 -45.5 92t-93.5 35h-100q16 -27 22 -74v-563q22 68 90.5 114.5t141.5 39.5q40 -4 65 -28t23 -54q-4 -23 -17 -39q22 -41 -24 -76.5t-86 -27.5q9 10 12 14.5t5.5 14.5t2.5 26q0 17 -22.5 37t-53.5 20q-60 0 -94 -40t-43 -97v-606 q0 -56 -20 -74h102q81 0 135.5 56.5t50.5 168.5q-1 20 -4 53t-3.5 47t0.5 34.5t7.5 35t18.5 29.5q16 21 44 29.5t48.5 6t21.5 -8.5q-36 -18 -61 -78t-25 -115q0 -85 19.5 -186.5t36.5 -149.5q-88 9 -111 23q-44 -15 -194 -15h-346q-83 -49 -177 -49t-173 44.5t-132.5 115 t-93 163.5t-60 183t-28.5 180q-9 144 -37 154zM326 672q3 -5 6 -10.5t5 -9.5t4 -11t3 -11t2 -12.5t1.5 -12.5t1 -14.5t0.5 -14.5t0.5 -17t0.5 -18q0 -6 -0.5 -63t1 -109t5.5 -128t16.5 -137t31 -117.5t50.5 -88t74 -31.5t73.5 31.5t50 88t30.5 117.5t16.5 137t6 127.5t1 109 t-0.5 63.5q0 5 0.5 18t0.5 17t0.5 14.5t1 14.5t1.5 12.5t2 12.5t3 11t4 11t5 9.5t6 10.5q-16 7 -23 11.5t-17.5 14t-22.5 25.5q46 13 45 151v7q-10 236 -40 340q-45 155 -143 155q-139 -2 -172 -305q-6 -62 -12 -190v-7q0 -33 1 -56.5t12 -56t32 -38.5q-11 -16 -22 -26 t-17.5 -13.5t-23.5 -11.5zM418 440q2 41 32 65.5t80 18.5q49 -6 80 -47t40.5 -98t11.5 -123t-7 -123q-21 -151 -73 -219q35 85 45 244q6 110 -28 181.5t-87 82.5q-25 3 -49 -11t-27 -34q-18 18 -18 63zM483 336q3 15 19 25t33 6q15 -2 35.5 -29.5t29.5 -73.5 q12 -60 6 -144.5t-26 -152.5q14 147 0 236q-8 59 -33 97.5t-64 35.5zM1110 283q-5 53 4 106t31.5 102t67 82t104.5 37q53 3 79.5 -25t24.5 -67q0 -40 -28 -57q-9 25 -31.5 40t-48.5 15q-64 0 -113.5 -61t-50.5 -164q0 -123 57 -240q-27 27 -58 95.5t-38 136.5zM1181.5 239.5 q-6.5 80.5 14.5 135.5q16 37 40.5 58.5t45.5 25.5q24 2 40 -9.5t13 -33.5q-45 9 -77 -18t-48 -79q-9 -27 -10 -61.5t2.5 -60t9 -60.5t7.5 -51q-31 73 -37.5 153.5z" />
<glyph unicode="&#x153;" horiz-adv-x="1110" d="M27 612q-1 135 21 246.5t68 199.5t125.5 136t186.5 47q76 -4 121 -18h518l6 -109q-23 11 -64 19t-65 8h-115q-4 -11 -4 -47v-398h60q84 0 129 19v-121q-41 20 -129 20h-60v-485q0 -40 4 -51q103 0 125 2q82 6 129 29l-8 -109h-528q-61 -23 -123 -23q-98 -1 -174.5 49 t-124 138t-72.5 202t-26 246zM319 612q0 -141 5 -241t16.5 -174.5t32.5 -110.5t51 -35q61 1 84.5 130.5t23.5 430.5q0 141 -5 240t-16.5 173.5t-32 110.5t-50.5 35q-63 -1 -86 -129t-23 -430z" />
<glyph unicode="&#x178;" horiz-adv-x="692" d="M-82 1393h432q-19 -11 -32 -28t-19.5 -31t-10 -36.5t-4 -32.5t-0.5 -31l1 -22l116 -536q22 89 46 201.5t39.5 186t36 158.5t42 141t50.5 109t68 87t89 53q54 22 107.5 20t83.5 -28q14 -14 19.5 -35.5t-1.5 -40.5q25 -84 -39 -113q-11 35 -32 54.5t-68 19.5 q-35 0 -62.5 -17.5t-48 -45.5t-41.5 -82.5t-36 -108t-38 -143.5q-43 -176 -53 -230q-9 -75 15 -110q-8 -12 -30 -25t-40 -18q3 -4 4 -10.5t0.5 -15.5t-1.5 -17.5t-3.5 -20t-4.5 -18.5t-5 -18t-4 -15l-23 -82v-463q0 -185 23 -273.5t94 -162.5q-52 13 -100.5 43t-87.5 68.5 t-77 77.5t-84.5 76.5t-93.5 58.5q31 20 44.5 69t13.5 103v403l-23 98q-7 27 -32 54t-54 43q12 33 47 51q-6 7 -10.5 14.5t-7.5 13t-7 18t-5.5 17t-6.5 21.5t-6 22l-92 348q-31 137 -88 181zM162 1561q0 41 27.5 68.5t68.5 27.5q39 0 67.5 -27.5t28.5 -68.5q0 -37 -29 -65 t-67 -28q-40 0 -68 28t-28 65zM410 1561q0 41 28 68.5t68 27.5t67 -27.5t27 -68.5q0 -37 -27.5 -65t-66.5 -28t-67.5 28t-28.5 65zM653 1092q69 344 185 344q26 0 39.5 -21.5t7.5 -44.5q-12 10 -35 10q-32 0 -66 -34.5t-60.5 -87t-43.5 -93.5t-27 -73z" />
<glyph unicode="&#x2c6;" horiz-adv-x="739" d="M152 1016l167 213h99l168 -213l-70 -10l-147 120l-148 -120z" />
<glyph unicode="&#x2dc;" horiz-adv-x="720" d="M123 1106q79 138 188 113q26 -4 79 -29t79 -31q44 -9 82 47l37 -22v6q-85 -140 -187 -119q-23 5 -71.5 29.5t-73.5 29.5q-29 6 -50.5 -5t-43.5 -42z" />
<glyph unicode="&#x2000;" horiz-adv-x="859" />
<glyph unicode="&#x2001;" horiz-adv-x="1718" />
<glyph unicode="&#x2002;" horiz-adv-x="859" />
<glyph unicode="&#x2003;" horiz-adv-x="1718" />
<glyph unicode="&#x2004;" horiz-adv-x="572" />
<glyph unicode="&#x2005;" horiz-adv-x="429" />
<glyph unicode="&#x2006;" horiz-adv-x="286" />
<glyph unicode="&#x2007;" horiz-adv-x="286" />
<glyph unicode="&#x2008;" horiz-adv-x="214" />
<glyph unicode="&#x2009;" horiz-adv-x="343" />
<glyph unicode="&#x200a;" horiz-adv-x="95" />
<glyph unicode="&#x2010;" horiz-adv-x="516" d="M2 551q30 62 85.5 117t109.5 55q35 0 84 -36t88 -36q59 0 110 35q-31 -61 -85.5 -115.5t-108.5 -54.5q-37 0 -88 35t-86 35q-64 0 -109 -35z" />
<glyph unicode="&#x2011;" horiz-adv-x="516" d="M2 551q30 62 85.5 117t109.5 55q35 0 84 -36t88 -36q59 0 110 35q-31 -61 -85.5 -115.5t-108.5 -54.5q-37 0 -88 35t-86 35q-64 0 -109 -35z" />
<glyph unicode="&#x2012;" horiz-adv-x="516" d="M2 551q30 62 85.5 117t109.5 55q35 0 84 -36t88 -36q59 0 110 35q-31 -61 -85.5 -115.5t-108.5 -54.5q-37 0 -88 35t-86 35q-64 0 -109 -35z" />
<glyph unicode="&#x2013;" horiz-adv-x="1063" d="M2 551q64 62 183.5 117t235.5 55q75 0 180 -36t189 -36q127 0 236 35q-67 -61 -184 -115.5t-232 -54.5q-80 0 -189.5 35t-184.5 35q-137 0 -234 -35z" />
<glyph unicode="&#x2014;" horiz-adv-x="2087" d="M2 551q129 62 367 117t470 55q151 0 361 -36t378 -36q253 0 472 35q-133 -61 -367 -115.5t-466 -54.5q-159 0 -378 35t-369 35q-275 0 -468 -35z" />
<glyph unicode="&#x2018;" horiz-adv-x="276" d="M39 1014q0 72 59.5 141.5t124.5 112.5q-51 -73 -57 -156q34 -9 55 -36t21 -62q0 -43 -31 -74t-74 -31q-40 0 -69 31t-29 74z" />
<glyph unicode="&#x2019;" horiz-adv-x="280" d="M39 1192q0 44 29.5 75t72.5 31q40 0 70.5 -31t30.5 -75q0 -72 -61 -142t-126 -110q51 69 58 154q-34 9 -54 35.5t-20 62.5z" />
<glyph unicode="&#x201a;" horiz-adv-x="303" d="M31 104q0 47 34.5 82t81.5 35t81 -35t34 -82q0 -43 -22 -88t-56.5 -82t-67.5 -64t-63 -46q17 26 27 43t22 52.5t15 74.5q-38 9 -62 40t-24 70z" />
<glyph unicode="&#x201c;" horiz-adv-x="518" d="M39 1014q0 72 59.5 141.5t124.5 112.5q-51 -73 -57 -156q34 -9 55 -36t21 -62q0 -43 -31 -74t-74 -31q-40 0 -69 31t-29 74zM268 1014q0 72 59.5 141.5t125.5 112.5q-52 -74 -56 -156q34 -9 54 -36t20 -62q0 -43 -30 -74t-74 -31q-40 0 -69.5 31t-29.5 74z" />
<glyph unicode="&#x201d;" horiz-adv-x="522" d="M39 1192q0 44 29.5 75t72.5 31q40 0 70.5 -31t30.5 -75q0 -72 -61 -142t-126 -110q51 69 58 154q-34 9 -54 35.5t-20 62.5zM268 1192q0 44 30 75t73 31q41 0 70.5 -31t29.5 -75q0 -72 -60 -142t-124 -110q49 76 55 154q-34 9 -54 35.5t-20 62.5z" />
<glyph unicode="&#x201e;" horiz-adv-x="563" d="M31 104q0 47 34.5 82t81.5 35t81 -35t34 -82q0 -43 -22 -88t-56.5 -82t-67.5 -64t-63 -46q17 26 27 43t22 52.5t15 74.5q-38 9 -62 40t-24 70zM297 104q0 47 35 82t82 35t80.5 -34.5t33.5 -82.5q0 -43 -22 -88t-56.5 -82t-67.5 -64t-63 -46q17 26 27 43t22 52.5t15 74.5 q-38 9 -62 40t-24 70z" />
<glyph unicode="&#x2022;" horiz-adv-x="481" d="M45 606q0 77 57 133t136 56q76 0 131 -56t55 -133q0 -75 -54.5 -128.5t-131.5 -53.5q-80 0 -136.5 53.5t-56.5 128.5z" />
<glyph unicode="&#x202f;" horiz-adv-x="343" />
<glyph unicode="&#x205f;" horiz-adv-x="429" />
<glyph unicode="&#x20ac;" horiz-adv-x="841" d="M41 436v127l94 -4v49v47l-94 -2v129q11 -2 104 -6q9 82 28 148.5t55 126t86 100t123.5 64t166.5 24.5q124 0 193 -37l-47 -106q-20 30 -58.5 56t-77.5 26q-45 0 -78 -24t-53 -60.5t-33 -93.5t-18 -108.5t-8 -119.5q226 0 346 10v-129q-204 6 -346 6v-51v-53q202 0 346 8 v-127q-204 6 -344 6q3 -84 11 -148t27.5 -126t57.5 -96t92 -35q39 -1 77 25.5t59 58.5q35 -86 47 -111q-89 -37 -193 -35q-400 5 -459 463q-24 0 -59 -1t-45 -1z" />
<glyph unicode="&#x25fc;" horiz-adv-x="1218" d="M0 0v1219h1219v-1219h-1219z" />
</font>
</defs>
</svg>
